<?xml version="1.0" encoding="utf-8"?>
<!-- Generator: Adobe Illustrator 16.0.3, SVG Export Plug-In . SVG Version: 6.00 Build 0)  -->
<!DOCTYPE svg PUBLIC "-//W3C//DTD SVG 1.1//EN" "http://www.w3.org/Graphics/SVG/1.1/DTD/svg11.dtd">
<svg version="1.1" id="Layer_1" xmlns="http://www.w3.org/2000/svg" xmlns:xlink="http://www.w3.org/1999/xlink" x="0px" y="0px"
	 width="1728px" height="1740.174px" viewBox="0 425.233 1728 1740.174" enable-background="new 0 425.233 1728 1740.174"
	 xml:space="preserve">
<path fill="#010000" d="M1726.749,1019.852c-5.785-31.484-28.423-46.607-52.448-62.622c-27.635-18.421-55.269-36.842-82.896-55.269
	l-276.867-184.578l-284.754-189.838c-30.917-20.612-61.835-41.224-92.759-61.835c-15.731-10.492-32.749-24.696-51.018-30.371
	c-34.131-10.604-59.332,6.566-85.543,24.032l-84.596,56.396L437.585,701.291c-94.515,63.01-189.029,126.02-283.537,189.03
	l-91.162,60.776c-15.67,10.444-34.678,20.494-46.58,35.396c-21.261,26.618-16.313,63.321-16.313,95.227v460.574
	c0,9.939-0.511,20.052,1.272,29.867c3.864,21.289,16.443,38.327,34.055,50.382c17.515,11.985,35.334,23.556,52.995,35.327
	l248.604,165.735l298.557,199.038l180.258,120.172c9,6,17.916,11.605,28.567,14.536c22.838,6.283,45.191,0.554,64.455-12.206
	c19.042-12.615,38.016-25.347,57.023-38.017c84.236-56.16,168.474-112.319,252.717-168.473l297.402-198.271l173.851-115.9
	c10.229-6.822,19.548-14.599,26.321-25.091c9.76-15.131,11.93-31.871,11.93-49.297v-453.399
	C1728,1071.768,1730.959,1044.59,1726.749,1019.852L1726.749,1019.852z M864,1471.668
	c-76.654-51.272-153.309-102.546-229.969-153.819l-32.652-21.835l230.515-154.192l21.255-14.219
	c2.287-1.534,7.534-6.718,10.382-6.946c5.06-0.4,16.72,10.562,20.971,13.409c44.935,30.054,89.87,60.114,134.812,90.167
	l107.323,71.781l-229.983,153.82L864,1471.668L864,1471.668z M789.751,991.367c-30.551,20.432-61.102,40.864-91.653,61.303
	c-54.383,36.371-108.767,72.742-163.15,109.12c-18.248,12.206-36.495,24.413-54.743,36.612c-2.716,1.818-8.211,7.271-11.536,7.714
	c-1.922,0.256-2.619-0.622-4.7-2.012c-43.138-28.768-86.192-57.652-129.289-86.476l-78.99-52.835l-28.927-19.347
	c-4.589-3.069-13.319-6.685-16.651-11.143c-0.428-0.573-1.534-1.03-2.149-1.438l58.054-38.7l138.579-92.386l168.397-112.265
	l144.938-96.623l48.038-32.03l14.958-9.975c1.396-0.933,6.11-5.328,7.831-5.218l0.988-0.657v346.354H789.751z M334.265,1296.014
	c-54.163,36.232-108.332,72.466-162.495,108.691l-23.259,15.559V1171.75l162.495,108.698l23.259,15.559V1296.014z M467.818,1385.352
	l99.049,66.244l168.611,112.77l48.916,32.715c1.527,1.022,4.576,2.343,5.35,3.933c1.452,2.986,0,10.368,0,13.596v310.218
	c0,5.758,1.493,13.872,0,19.471c-0.207,0.781,0,1.895,0,2.717l-58.054-38.7l-138.579-92.386l-168.396-112.265l-144.938-96.63
	l-48.039-32.03l-14.958-9.974c-1.479-0.988-7.175-3.519-7.832-5.226l-0.988-0.657l228.172-152.603l31.691-21.199L467.818,1385.352z
	 M938.234,1600.66c30.552-20.432,61.103-40.863,91.653-61.303c54.384-36.371,108.768-72.742,163.151-109.119
	c18.247-12.207,36.495-24.413,54.743-36.613c2.716-1.817,8.211-7.271,11.536-7.714c1.921-0.256,2.619,0.622,4.699,2.012
	c43.139,28.768,86.2,57.646,129.297,86.469c26.334,17.612,52.662,35.224,78.997,52.829l28.934,19.346
	c4.589,3.069,13.319,6.685,16.657,11.136c0.429,0.573,1.535,1.03,2.15,1.438l-58.055,38.7l-138.585,92.386l-168.404,112.265
	l-144.944,96.63l-48.045,32.03l-14.958,9.974c-1.396,0.934-6.11,5.329-7.831,5.219l-0.988,0.657v-346.354L938.234,1600.66z
	 M1393.722,1296.014l162.515-108.698l23.266-15.559v248.514c-54.169-36.232-108.345-72.465-162.515-108.69l-23.266-15.56V1296.014z
	 M1260.168,1206.676l-99.049-66.244l-168.611-112.77l-48.916-32.714c-1.527-1.023-4.576-2.344-5.35-3.934
	c-1.452-2.985,0-10.368,0-13.596V667.201c0-5.758-1.493-13.872,0-19.471c0.207-0.781,0-1.895,0-2.717l58.054,38.7l138.585,92.386
	l168.404,112.266l144.945,96.622l48.045,32.03l14.957,9.975c1.479,0.988,7.175,3.518,7.832,5.219l0.988,0.656l-228.193,152.617
	l-31.698,21.199L1260.168,1206.676z"/>
</svg>
