<?xml version="1.0" encoding="utf-8"?>
<!-- Generator: Adobe Illustrator 16.0.3, SVG Export Plug-In . SVG Version: 6.00 Build 0)  -->
<!DOCTYPE svg PUBLIC "-//W3C//DTD SVG 1.1//EN" "http://www.w3.org/Graphics/SVG/1.1/DTD/svg11.dtd">
<svg version="1.1" xmlns="http://www.w3.org/2000/svg" xmlns:xlink="http://www.w3.org/1999/xlink" x="0px" y="0px" width="1728px"
	 height="2592px" viewBox="0 0 1728 2592" enable-background="new 0 0 1728 2592" xml:space="preserve">
<g id="Layer_1" display="none">
	<rect x="-292.296" y="706.761" display="inline" fill="#8814FF" width="2682.269" height="1485.149"/>
</g>
<g id="Layer_2">
	<g>
		<g>
			<path fill-rule="evenodd" clip-rule="evenodd" fill="#FFFFFF" d="M1032.424,2256.607c0-2.777,0.018-4.416-0.003-6.055
				c-0.165-13.693-1.423-15.02-14.688-15.835c-1.262-0.079-2.915-0.351-3.662-1.182c-5.685-6.35-15.147-6.179-20.262-15.445
				c-6.652-12.052-8.695-10.924,0.529-21.395c-2.841-6.198-5.817-12.686-9.005-19.636c-6.49,3.163-11.836,5.661-17.056,8.393
				c-1.324,0.695-3.11,2.063-3.225,3.259c-0.77,8.041-4.762,15.859,0.587,24.29c2.319,3.657,2.679,10.256,1.054,14.39
				c-4.021,10.229,0.721,15.781,8.442,20.386c12.211,7.284,17.663,6.974,25.792-0.925c9.258-9,16.481-7.125,20.825,5.432
				c0.502,1.454,0.818,2.975,1.184,4.323C1026.274,2256.607,1028.84,2256.607,1032.424,2256.607z M946.857,1478.872
				c-6.104,12.018-10.665,23.17-1.319,34.999c4.454,5.641,10.79,5.415,14.045-0.825
				C968.424,1496.088,965.375,1487.483,946.857,1478.872z M1136.234,2436.547c-7.186-13.416-13.422-17.796-20.474-15.174
				c-12.293,4.576-14.032,9.533-10.202,30.608C1115.758,2446.848,1125.704,2441.846,1136.234,2436.547z M913.178,2334.185
				c1.273-0.299,2.547-0.597,3.818-0.896c5.288-6.654,7.113-28.41,2.455-38.598c-1.565-3.424-5.379-5.823-8.168-8.688
				c-1.084,3.2-2.446,6.341-3.182,9.62c-0.714,3.202-1.557,6.68-1.008,9.803C908.779,2315.071,911.104,2324.606,913.178,2334.185z
				 M1100.779,2214.482c1.02-1.274,2.037-2.545,3.055-3.815c-2.351-5.811-4.701-11.619-7.055-17.429
				c-2.139,1.111-5.654,1.799-6.152,3.418c-1.303,4.244-2.985,9.756-1.275,13.115
				C1090.767,2212.559,1096.794,2213.002,1100.779,2214.482z M877.174,2181.628c4.589,3.432,7.673,7.352,9.65,6.856
				c3.426-0.857,6.168-4.447,9.196-6.891c-3.155-2.82-5.968-6.448-9.65-8.014C885.086,2173.034,881.638,2177.588,877.174,2181.628z
				 M909.984,1535.942c11.605-4.599,12.158-5.747,8.146-16.917C905.986,1517.711,904.346,1521.12,909.984,1535.942z
				 M915.831,2256.512c-15.287,6.357-16.847,13.516-6.134,23.908C911.735,2272.483,913.547,2265.419,915.831,2256.512z
				 M909.118,1476.988c1.315,9.484,6.576,12.335,14.915,8.149C923.11,1474.939,916.398,1475.553,909.118,1476.988z"/>
			<path fill-rule="evenodd" clip-rule="evenodd" d="M869.477,1877.675c-3.13,5.479-4.615,8.076-6.072,10.628
				c5.868,7.148,11.667,14.21,17.667,21.517c-4.718,3.619-8.392,6.438-12.804,9.826c-2.883-2.064-6.271-3.666-8.522-6.258
				c-6.789-7.808-14.62-12.297-25.2-14.269c-5.88-1.099-10.854-7.933-15.838-12.607c-2.569-2.41-4.266-5.754-7.904-10.833
				c1.936,16.988,3.591,31.55,5.251,46.11c-1.261,0.793-2.523,1.583-3.785,2.374c-7.115-17.504-17.589-30.936-36.506-34.118
				c-9.865,11.228-17.84,12.851-25.007,5.042c-2.754,1.423-5.587,2.891-9.657,4.997c-2.6-10.257,4.785-24.748-13.738-27.276
				c-11.748,8.582-26.522,16.664-27.264,36.356c-0.09,2.391-4.291,6.187-7.055,6.672c-25.6,4.511-30.676,22.574-31.891,41.819
				c-1.188,18.821-0.259,37.777-0.259,57.815c23.966-1.084,35.141,13.304,47.855,29.495c-2.876,1.884-4.912,3.048-6.76,4.462
				c-6.59,5.044-6.801,10.255-2.776,17.798c2.519,4.718,1.463,11.632,1.09,17.501c-0.223,3.485-2.234,6.854-3.735,11.112
				c11.148,1.94,13.022,7.339,7.064,16.333c-0.909,1.372,1.144,5.682,2.909,7.668c5.833,6.56,12.789,12.194,18.137,19.093
				c6.072,7.833,10.232,17.166,16.444,24.862c4.687,5.803,10.941,10.808,19.798,7.879c9.519-3.144,10.724-10.681,10.606-19.147
				c-0.124-9.015-0.027-18.035,2.074-28.056c8.345,15.312,19.458,24.228,38.386,24.627c-3.261-20.932,1.475-36.985,26.798-40.166
				c0.627,4.769,1.449,9.165,1.732,13.595c0.588,9.074,0.051,18.306,1.521,27.218c1.845,11.172,3.254,21.142-6.11,30.438
				c-5.946,5.903-5.677,17.775-19.048,17.908c1.692-5.001,3.365-9.942,5.658-16.716c-4.652,1.311-8.165,2.303-12.268,3.458
				c-1.833-2.156-3.829-4.507-8.068-9.496c-2.056,13.973-4.471,25.188-5.181,36.509c-0.906,14.462-3.549,27.319-16.011,36.937
				c-7.25,5.599-9.277,14.092-7.188,23.443c2.678,11.96,4.859,24.031,7.256,36.07c25.872-6.437,37.389-24.921,43.081-68.862
				c-1.246-0.633-2.949-1.068-4.036-2.132c-3.102-3.032-9.015-8.199-8.4-9.201c3.429-5.603,7.718-11.502,13.225-14.704
				c3.451-2.006,8.839,0.042,10.677,6.889c1.586,5.921,5.709,12.027,10.421,16.042c6.767,5.761,10.545,12.058,12.305,20.745
				c0.984,4.846,5.441,8.964,8.23,13.475c2.145,3.465,4.993,6.813,5.946,10.61c1.018,4.061,0.64,8.648,0.054,12.896
				c-1.458,10.64,1.464,18.625,9.444,26.647c5.152,5.18,8.798,14.896,8.211,22.184c-1.714,21.108-5.878,42.021-9.132,63.001
				c-1.293,8.301-0.245,14.759,9.356,14.301c2.438-4.383,4.602-8.272,6.995-12.579c6.406,7.935,11.297,13.997,16.187,20.057
				c1.123-0.561,2.245-1.123,3.365-1.688c0-3.314,0.233-6.647-0.035-9.941c-1.47-17.813-3.564-35.588-4.362-53.43
				c-0.324-7.252,2.699-14.207,10.879-17.368c8.456,44.452,21.832,64.014,39.882,62.771c1.071-5.28,0.768-12.975,3.171-13.941
				c9.003-3.622,8.453,5.168,10.287,10.316c3.867,10.877,8.937,15.763,20.565,19.527c1.595-4.915,3.188-9.833,5.756-17.731
				c6.244,7.093,12.423,11.672,15.137,17.79c3.625,8.175,8.688,10.801,16.533,9.909c-3.25-25.472-1.522-51.877-16.673-75.063
				c6.549-2.734,10.679-4.457,15.158-6.324c2.377,7.333,4.457,13.941,6.665,20.51c2.803,8.339,6.244,15.572,15.872,18.932
				c3.687,1.286,6.59,7.17,8.221,11.563c3.907,10.518,7.549,20.802,19.945,24.18c0.895,0.243,1.779,1.003,2.384,1.754
				c8.234,10.224-0.894,19.486-1.751,29.204c-0.551,6.275-4.725,8.069-10.73,9.005c-25.278,3.925-50.367,9.12-75.693,12.647
				c-27.237,3.792-53.421-1.352-79.139-10.993c-76.268-28.593-145.428-69.812-211.11-117.354c-2.41-1.742-4.83-3.682-6.655-5.996
				c-13.795-17.477-33.012-28.661-49.334-43.094c-71.377-63.117-143.415-125.855-187.781-213.033
				c-30.293-59.529-55.831-120.594-65.626-187.205c-5.374-36.546-6.004-73.278,5.197-108.718
				c5.607-17.742,15.574-34.225,24.569-50.733c5.995-11.004,13.754-21.049,20.807-31.649c-9.31-5.337-15.047-2.723-21.406,4.131
				c-15.802,17.035-36.813,23.788-59.061,28.337c-28.707,5.872-54.351-2.549-79.544-14.571c-2.1-1.005-4.079-2.533-6.288-3
				c-26.58-5.614-41.375-25.646-54.33-46.53c-6.614-10.661-10.788-23.712-12.738-36.202c-3.401-21.785-6.143-44.018-5.576-65.971
				c0.527-20.36,4.496-40.896,9.23-60.814c5.068-21.319,17.646-39.214,31.313-56.234c12.463-15.521,23.823-31.95,36.657-47.144
				c11.644-13.784,25.391-25.813,36.805-39.763c13.645-16.676,25.84-34.538,38.552-51.965c2.327-3.188,4.131-6.758,7.186-11.825
				c-14.748,1.488-23.476-15.462-39.125-9.588c-1.385,0.521-4.497-1.316-5.698-2.898c-8.766-11.551-20.816-12.704-33.336-9.791
				c-24.291,5.652-48.589,11.596-70.053,25.224c-5.786,3.674-15.143,2.919-15.373,13.839c-0.034,1.626-9.082,4.291-13.925,4.218
				c-4.264-0.064-8.949-2.636-12.623-5.255c-8.539-6.092-16.626-12.505-28.125-7.696c-1.202,0.502-3.352-0.26-4.626-1.097
				c-7.993-5.253-16.322-4.811-24.838-1.782c-6.276,2.229-11.604,1.704-15.753-4.267c-1.485-2.137-3.808-3.694-5.762-5.501
				c-8.136-7.521-16.651-13.435-19.297-26.484c-2.887-14.233-11.86-26.364-29.316-28.598c-7.51-0.958-10.257-8.233-10.068-15.356
				c0.397-14.87,1.351-29.727,2.144-44.586c0.068-1.294,1.344-3.23,0.862-3.744c-8.928-9.529,1.878-15.256,3.865-22.819
				c4.372-16.628,7.44-33.604,10.876-50.474c0.285-1.393-0.222-3.975-1.139-4.429c-9.309-4.601-8.392-12.512-6.756-20.482
				c-16.307-6.944-17.407-11.014-7.573-25.632c4.451-6.617,8.634-13.416,12.856-20.184c0.863-1.386,1.359-3.001,2.038-4.54
				c-10.328-3.588-18.317-12.753-30.517-11.168c-1.332,0.173-3.743-3.884-4.8-6.347c-6.124-14.266,3.33-26.208,6.831-38.855
				c0.869-3.139,8.125-4.413,12.313-6.775c1.855-1.047,4.626-2.482,4.871-4.067c2.567-16.64,14.546-26.405,26.145-36.391
				c6.042-5.202,12.936-9.454,18.7-14.921c3.403-3.229,6.894-7.737,7.624-12.121c1.444-8.681,6.452-13.044,14.139-13.668
				c11.556-0.936,17.818-6.383,20.737-17.557c1.553-5.945,4.273-12.761,8.727-16.475c5.48-4.57,13.316-6.314,21.328-9.801
				c-0.4-0.604-1.933-2.921-3.919-5.923c2.059-0.388,4.117-1.2,6.124-1.087c11.513,0.641,19.689-3.965,25.204-14.258
				c2.784-5.195,6.938-9.653,12.097-16.648c-1.079-6.253-16.088-11.773-10.165-24.768c7.699,5.396,7.394,5.14,14.396-3.199
				c7.48-8.905,15.54-17.328,23.487-25.832c8.796-9.415,13.908-19.956,12.575-33.335c-1.176-11.819,2.51-21.301,14.054-27.199
				c9.18-4.691,10.21-13.84,10.369-24.098c-13.215-2.858-34.082,2.386-27.698-20.39c9.638-8.038,18.722-13.797,25.363-21.63
				c7.794-9.191,2.806-19.807-5.594-21.72c-6.013-8.374-9.819-15.04-14.933-20.478c-7.751-8.241-8.329-13.81-0.563-21.79
				c7.927-8.145,7.927-8.145,6.557-18.107c-8.646,3.721-16.999,7.314-25.222,10.852c-7.746-12.066-7.388-33.318,0.558-43.034
				c1.325-1.618,4.18-1.881,5.969-3.24c14.769-11.212,30.144-21.994,34.602-43.077c-6.747-0.312-12.197-0.564-20.935-0.967
				c3.27-4.458,4.706-8.395,7.441-9.796c10.628-5.45,17.227-11.848,14.627-25.519c-1.815-9.543-0.351-19.71-0.351-27.843
				c22.005-5.3,42.294-10.054,62.507-15.121c8.384-2.103,16.372-21.266,15.534-29.747c-1.225-12.383,0.122-25.021,0.423-37.55
				c0.013-0.576,0.357-1.434,0.804-1.668c19.925-10.376,28.715-39.401,58.985-32.362c-0.401-8.024-0.693-13.842-1.039-20.74
				c10.945-4.283,14.899-13.606,14.92-25.562c0.003-2.284,2.496-5.824,4.638-6.612c6.829-2.505,11.853-5.048,6.987-13.459
				c-0.41-0.709,1.173-2.59,1.856-3.914c1.563-3.029,3.141-6.049,5.233-10.071c-4.968-0.807-8.352-1.355-11.705-1.899
				c2.069-19.972,10.313-27.424,30.04-27.63c7.467-0.077,15.834,1.629,15.618-10.576c-0.039-2.157,3.914-5.041,6.615-6.465
				c7.817-4.124,16.191-7.224,23.854-11.591c6.435-3.668,10.596-9.181,7.46-17.431c-0.458-1.205-0.619-2.662-0.447-3.937
				c0.342-2.537,20.171-21.223,22.814-21.408c14.649-1.029,28.048-0.487,37.285,14.473c7.072,11.457,15.911,22.281,30.737,27.216
				c11.08-19.477,28.7-14.154,45.788-11.489c3.224,0.502,6.593,0.07,9.894,0.07c0.102-1.138,0.205-2.273,0.306-3.411
				c-1.265-0.41-2.691-0.573-3.748-1.286c-1.339-0.908-2.376-2.26-3.542-3.422c1.148-0.875,2.312-2.522,3.445-2.504
				c9.913,0.171,19.854-4.95,29.913,2.156c3.174,2.242,11.626,0.745,15.274-2.099c12.289-9.591,25.087-12.498,40.563-10.35
				c12.195,1.695,25.372,2.685,36.035-7.01c1.282-1.165,5.153-1.256,6.588-0.187c8.332,6.218,15.732,2.005,23.351-1.298
				c4.261-1.849,8.635-3.439,12.881-5.321c4.48-1.982,7.438-1.371,11.015,2.769c9.832,11.379,19.107,11.235,29.903,1.262
				c9.661-8.927,19.978-14.733,34.174-8.926c6.853,2.803,14.991,2.463,21.02,3.326c2.651,4.415,3.891,9.053,6.878,10.956
				c8.573,5.468,13.008,3.186,15.367-6.651c2.343-9.75,8.841-13.056,18.676-9.498c18.635,6.745,19.563,8.655,15.665,31
				c12.271,2.419,24.489,4.909,36.746,7.208c5.588,1.046,8.508,3.968,9.449,9.76c1.316,8.11,6.027,10.014,13.773,7.004
				c9.543-3.708,19.092-6.145,25.525-15.904c2.234-3.39,11.049-2.443,16.855-3.476c-0.246,1.261-0.492,2.525-0.737,3.787
				c3.596,2.319,7.026,6.252,10.824,6.647c10.151,1.055,20.662,1.891,30.649,0.345c9.099-1.41,15.704-0.017,22.628,6.054
				c9.82,8.612,11.508,7.941,21.558-2.24c0.827-0.841,2.865-1.164,4.095-0.826c12.862,3.532,25.67,7.269,38.505,10.901
				c4.268,1.208,10.113,0.949,12.514,3.722c3.962,4.571,6.782,10.84-0.881,16.146c-2.636,1.826-3.818,5.757-7.319,11.385
				c8.417-1.367,14.061-2.116,19.627-3.243c3.896-0.787,7.681-2.127,11.531-3.162c10.567-2.841,21.259-6.197,28.148,7.773
				c-1.237,2.394-3.379,6.522-6.637,12.813c14.82-4.305,28.937,10.565,40.681-4.89c7.496,6.142,14.966,12.269,22.437,18.392
				c-0.966,1.51-1.932,3.019-2.897,4.53c-4.352-0.192-8.952-1.338-12.989-0.297c-3.774,0.976-6.951,4.269-10.69,6.738
				c12.744,9.365,22.734,5.606,32.516-1.672c6.885-5.126,14.144-9.077,24.375-2.537c-3.66,8.538-7.396,17.245-11.483,26.778
				c6.118-2.949,12.979-6.257,20.34-9.806c4.605,9.195,12.563,11.615,22.226,11.952c15.124,0.525,19.01,4.576,18.413,19.501
				c-0.261,6.552,2.229,9.396,7.727,11.749c9.29,3.974,17.709,10.227,28.219,1.445c3.552-2.971,10.119-2.614,13.05,4.374
				c0.915,2.188,4.494,3.79,7.173,4.575c3.449,1.013,7.25,0.753,10.845,1.366c22.824,3.88,26.996,10.24,21.999,33.897
				c-15.135,0.593-27.4,5.987-33.445,22.055c19.746,17.72,39.675,4.602,59.739,1.715c0.914,11.45,10.421,12.097,18.718,13.809
				c9.05,1.869,14.419,5.516,9.468,16.55c5.523,0.735,10.348,2.027,15.121,1.861c7.569-0.265,9.406,4.323,10.838,10.266
				c1.573,6.53-3.077,7.709-7.315,9.698c-9.117,4.278-19.108,7.519-24.755,19.797c8.926-0.685,16.459,1.202,22.444-6.084
				c4.717-5.743,13.143-4.574,16.583,1.911c2.775,5.231,5.487,10.497,9.445,18.09c-9.31,2.653-18.63,5.311-27.949,7.965
				c0.128,1.004,0.256,2.007,0.383,3.01c5.652-0.674,11.289-1.505,16.957-1.984c8.189-0.691,16.562-2.376,24.55-1.313
				c7.578,1.008,15.339,3.652,16.967,14.019c0.418,2.664,6.733,4.616,10.538,6.498c12.757,6.31,14.909,9.998,13.544,24.794
				c-7.356,2.245-15.312,3.04-19.44,12.517c-1.493,3.422-10.228,6.649-17.772,0.728c-5.667-4.449-14.795-4.486-22.382-6.487
				c-0.637,1.108-1.274,2.216-1.912,3.326c2.895,2.356,6.053,4.458,8.604,7.137c2.705,2.839,7.419,7.031,6.734,9.223
				c-2.089,6.684,1.545,8.849,5.752,11.922c3.909,2.853,9.943,4.69,7.178,12.163c-0.482,1.302,2.903,4.788,5.167,6.194
				c5.062,3.148,10.473,5.764,15.871,8.33c8.165,3.885,10.896,9.205,4.983,17.443c-8.141-0.114-14.271-11.296-24.645-5.776
				c10.21,11.125,17.506,12.542,30.505,7.996c5.3-1.854,10.097-2.558,12.896,5.755c2.643,7.848,9.229,14.313,13.745,21.595
				c4.69,7.561,4.192,8.85-4.269,12.837c5.06,10.685,8.17,23.125,15.735,31.585c7.569,8.462,5.971,19.25,12.066,27.549
				c6.275,8.538,12.362,17.536,16.535,27.196c3.745,8.673,5.014,18.467,6.938,27.858c1.729,8.409,0.125,14.964-10.164,16.567
				c-2.134,0.331-4.073,3.446-5.639,5.616c-6.492,8.993-12.672,18.215-19.326,27.082c-1.003,1.335-3.976,1.856-5.948,1.693
				c-9.713-0.809-13.36,3.291-11.744,12.426c0.578,3.275-0.906,7.023-1.878,10.434c-0.885,3.105-3.156,5.978-3.414,9.07
				c-0.9,10.829-0.668,10.847-8.506,17.321c1.067,4.559,2.18,9.306,3.295,14.049c-0.946-0.325-1.891-0.648-2.836-0.974
				c-2.617,4.806-4.994,9.764-7.923,14.373c-2.752,4.334-6.084,8.298-10.686,14.471c2.144,7.504-4.428,13.729-11.964,19.052
				c-16.768,11.838-31.968,24.663-38.918,45.188c-3.125,9.226-11.606,12.175-22.836,11.556c2.459,4.083,4.185,6.946,5.66,9.394
				c-6.352,13.422-12.71,26.529-18.774,39.774c-4.781,10.438-11.858,18.292-22.805,22.425c-8.902,3.359-15.873,8.561-21.156,17.124
				c-3.857,6.253-11.035,10.388-16.417,15.783c-5.537,5.553-10.585,11.593-16.067,17.201c-2.024,2.068-4.765,3.419-7.041,5.262
				c-4.96,4.008-9.873,8.074-14.706,12.23c-1.229,1.057-2.038,3.615-3.121,3.667c-12.016,0.563-18.143,9.354-25.272,17.073
				c-1.795,1.947-5.349,2.521-8.218,3.181c-17.499,4.026-38.206,23.718-37.348,41.365c0.617,12.593-4.18,21.364-8.801,31.283
				c-2.557,5.488-1.82,9.869,1.756,15.46c21.308,33.289,43.853,66.034,61.861,101.076c8.967,17.451,18.61,32.273,34.106,43.64
				c0.528,0.389,1.041,0.872,1.394,1.421c31.603,49.164,64.414,97.604,70.794,158.29c2.421,23.051,8.819,45.654,12.056,68.653
				c5.036,35.781,4.43,71.634-1.765,107.326c-0.62,3.563-1.226,7.388-0.59,10.864c3.08,16.805-0.272,33.054-3.524,49.356
				c-1.039,5.207-3.112,10.579-2.599,15.665c2.146,21.247-6.71,39.453-14.195,58.316c-18.249,45.995-35.824,92.255-53.667,138.408
				c-0.121,0.312-0.175,0.65-0.315,0.948c-30.739,65.522-61.358,131.104-92.399,196.488c-3.507,7.385-9.41,13.623-14.159,20.429
				c-14.433,20.683-29.378,41.033-43.127,62.161c-17.767,27.298-33.773,55.766-52.076,82.683
				c-11.707,17.212-25.957,32.733-39.516,48.631c-8.373,9.818-17.595,18.917-27.16,29.112
				c-16.276-14.009-33.444-27.291-56.128-21.216c-3.709,3.06-7.417,6.121-11.124,9.181c-2.327-3.508-4.655-7.016-8.366-12.604
				c6.579,0.423,10.027,0.646,14.78,0.955c-1.73-22.88-4.481-45.003-22.04-61.921c-7.248-6.985-11.781-13.479-6.495-24.193
				c3.138-6.359,3.671-14.077,4.965-21.258c2.712-15.026-0.36-18.483-15.337-17.871c-13.342,0.546-17.086-1.878-23.007-15.895
				c4.285-0.733,8.337-1.149,12.233-2.16c4.928-1.272,9.836-2.766,14.574-4.616c16.271-6.36,16.814-22.044,20.777-35.652
				c0.358-1.239,0.615-2.842,0.141-3.945c-8.666-20.18-0.621-39.887,1.542-59.752c-0.869,0.351-1.739,0.7-2.608,1.051
				c-2.218-4.399-6.012-8.672-6.367-13.217c-1.306-16.716,9.128-34.737,29.625-34.892c2.663-0.02,5.334,0.134,7.98-0.058
				c6.52-0.472,16.434,1.28,18.832-2.155c5.04-7.224,6.474-17.121,8.576-26.111c0.465-1.984-2.033-5.143-3.875-7.092
				c-5.238-5.535-11.102-10.485-16.228-16.113c-5.259-5.776-9.031-11.84-3.325-20.073c3.611-5.213,2.135-10.034-4.688-12.222
				c-3.773-1.21-7.381-2.935-11.023-4.409c-5.159,9.054-15.137,14.729-24.508,11.188c-8.765-3.312-13.17,1.445-18.212,5.852
				c-7.63,6.67-15.31,12.793-26.164,12.261c-0.403-0.75-1.095-1.446-0.958-1.87c4.362-13.393-1.996-20.659-12.987-27.728
				c-7.729-4.971-13.457-13.545-19.042-21.261c-9.677-13.368-19.188-26.947-27.452-41.205c-3.412-5.885-1.446-15.406-5.521-20.248
				c-4.211-5.005-12.931-6.067-15.031-14.283c-0.984-3.842-2.55-7.536-3.803-11.166c0.495-0.743,0.728-1.52,1.229-1.777
				c4.64-2.393,12.354-3.773,13.399-7.209c2.552-8.381,2.063-17.698,2.682-26.646c0.063-0.872-0.421-2.282-1.081-2.628
				c-10.313-5.422-8.036-14.288-7.265-23.305c0.259-2.984-2.6-7.284-5.292-9.289c-11.204-8.351-12.293-19.35-3.05-29.26
				c5.124-5.496,9.871-11.318,2.892-19.891c-2.983-3.661-2.031-10.525-3.089-17.362c13.847,0.495,23.714-4.021,28.807-16.08
				c4.42-10.468,8.868-20.923,14.38-33.923c4.616-0.749,9.044-5.188,8.504-14.574c-0.154-2.752,3.978-6.526,7.007-8.541
				c10.486-6.966,12.611-14.239,6.389-24.631c-3.817-6.37,2.277-21.779,9.421-23.825c13.263-3.801,18.867-16.683,13.055-29.067
				c-1.947-4.148-3.587-8.798-3.863-13.312c-0.947-15.57-8.352-27.613-18.816-38.514c-4.451-4.639-7.813-10.321-11.789-15.688
				c7.335-1.615,13.186-2.902,21-4.625c-6.909-5.971-11.258-11.374-16.899-14.127c-5.146-2.512-11.971-3.727-17.573-2.754
				c-15.301,2.652-32.591-5.092-38.388-19.586c11.707-2.272,22.729-5.682,33.822,2.297c10.947,7.871,23.576,9.994,36.562,9.238
				c5.722-19.009-12.021-18.534-21.277-24.976c0.353-0.836,0.705-1.671,1.06-2.505c2.481,0.346,5.112,1.368,7.407,0.856
				c2.8-0.623,7.758-3.069,7.594-3.806c-2.851-12.916,2.322-22.519,15.363-31.486c-11.763-2.396-20.102-4.001-28.391-5.816
				c-5.596-1.226-9.913-2.897-11.932-9.938c-1.256-4.382-7.729-7.267-11.871-10.814c-4.231-3.627-8.476-7.238-11.334-9.677
				c-9.979,0-19.731-0.9-29.241,0.24c-10.78,1.296-22.845,0.097-31.234,10.756c4.164,7.369,8.34,14.765,12.434,22.008
				c-12.56,3.229-24.382,6.267-36.397,9.356c-0.198,2.361-0.679,4.337-0.469,6.239c1.026,9.433-0.179,17.156-12.046,18.028
				c-1.492,0.109-3.167,1.292-4.275,2.439c-7.986,8.285-17.324,8.754-27.561,5.271c-2.789-0.949-5.779-1.299-9.504-2.1
				c-3.632,7.706-7.797,13.69-17.859,15.644c-4.072,0.789-8.141,12.722-8.386,19.718c-0.473,13.509,1.742,27.115,2.89,40.677
				c1.141,13.495,2.752,27.03-4.028,39.649c-4.972-4.609-8.873-10.434-14.249-12.604c-5.795-2.338-12.969-1.249-19.516-1.654
				c-0.784-10.595-1.559-21.035-2.499-33.776c-7.683,5.582-9.556,9.354-7.047,15.426c6.142,14.844,10.896,29.878,6.41,46.422
				c-0.881,3.241,0.457,8.658,2.828,10.949c12.778,12.356,11.815,23.963-3.178,36.65c6.176,3.668,10.516,6.871,15.336,8.971
				c8.11,3.534,11.581,8.061,9.454,17.759c-4.415,20.127,5.321,49.148,34.094,54.395c22.133,4.036,21.847,5.392,23.189,28.086
				c0.334,5.64,1.147,11.253,1.476,16.896c0.128,2.209,0.392,5.396-0.864,6.542c-6.235,5.692-8.8,11.628-3.216,19.088
				c4.008,5.353,8.026,10.705,12.252,15.884c1.576,1.931,3.749,3.373,5.937,5.288c-12.104,5.803-28.956-0.665-34.09-13.673
				c-5.985-15.164-18.434-18.227-33.021-21.158c0.754,6.422,1.488,11.576,1.943,16.758c0.742,8.466-1.691,15.348-8.606,21.123
				c-3.102,2.591-5.462,7.65-5.755,11.763c-1.494,21.146,11.779,34.076,27.163,45.218c1.946,1.411,6.187-0.448,9.376-0.613
				C862.013,1877.563,864.764,1877.675,869.477,1877.675z M831.145,1137.483c-6.684,0.458-12.209,0.922-17.746,1.2
				c-13.48,0.679-26.546,16.732-24.258,29.884c1.758,10.091-3.509,18.951-11.96,17.699c-9.497-1.408-14.941,3.534-22.065,7.95
				c-8.84,5.477-11.231,11.96-10.401,21.331c0.208,2.34-0.838,5.917-2.564,7.115c-9.715,6.729-13.226,15.942-11.086,28.193
				c-5.201,0-9.144-0.217-13.056,0.039c-15.498,1.011-39.666,22.065-42.823,37.162c-2.615,12.508-4.846,14.459-17.784,14.852
				c-6.583,0.198-13.179,0.033-19.771,0.033c0.534-0.98,1.07-1.961,1.605-2.942c-5.511-4.671-10.535-10.175-16.682-13.754
				c-5.159-3.006-15.287,2.538-14.153,7.363c0.83,3.544,6.032,7.968,9.805,8.533c9.199,1.378,12.812,5.676,9.956,14.121
				c-4.084,12.08-9.081,23.854-13.678,35.725c-4.442,0-8.637,0-12.86,0c1.172-20.005-1.601-22.699-21.729-23.43
				c-5.207-0.19-10.307-2.411-15.535-3.054c-13.499-1.649-26.724-3.328-36.151,10.756c-3.466,5.177-10.015,8.488-15.589,11.956
				c-2.188,1.357-5.633,1.386-8.375,1.023c-6.066-0.799-12.05-2.224-18.065-3.405c-5.897-1.155-11.792-2.326-17.947-3.541
				c-3.654,1.709-8.145,5.433-12.783,5.628c-9.162,0.389-16.358,1.733-18.65,12.216c-0.383,1.746-3.111,3.516-5.13,4.27
				c-6.214,2.326-11.073,5.308-12.88,12.541c-0.494,1.977-5.248,2.889-10.156,5.347c1.258-4.469,1.509-6.069,2.141-7.501
				c7.594-17.219,5.289-26.838-9.17-38.61c-1.502-1.222-2.669-2.933-3.763-4.569c-7.192-10.75-20.038-10.688-26.67,0.149
				c-6.894,11.261-13.467,22.745-20.861,33.667c-4.432,6.547-10.351,12.068-15.287,18.299
				c-26.295,33.198-52.653,66.352-78.592,99.825c-5.522,7.124-10.198,15.183-13.78,23.448c-3.112,7.187-2.895,15.884-6.314,22.85
				c-7.8,15.896-11.842,33.08-11.393,49.955c0.729,27.323,0.672,55.37,11.48,81.261c6.983,16.728,14.108,34.45,36.043,37.372
				c1.774,0.236,3.554,1.622,5.01,2.854c4.061,3.436,7.423,8.115,12.006,10.45c19.735,10.041,40.831,15.759,62.907,17.757
				c22.97,2.078,45.618-4.89,61.318-18.587c25.247-22.021,43.329-51.063,53.131-84.124c7.33-24.718,19.619-47.172,33.897-68.295
				c6.379-9.436,13.047-18.039,15.332-29.525c1.757-8.833,9.112-11.214,17.008-13.018c7.284-1.665,13.72-2.687,16.589,5.473
				c4.825-0.377,8.847-0.688,14.696-1.145c-2.698,4.669-4.023,7.703-6.018,10.206c-1.97,2.472-4.617,4.41-6.842,6.467
				c7.665,12.81,15.746,16.231,27.448,9.93c11.125-5.989,26.738-2.682,33.991-16.452c8.994,1.334,13.678-2.364,12.708-12.432
				c12.962,2.272,22.126-2.788,29.764-11.718c1.904-2.228,4.364-4.674,7.025-5.442c15.382-4.443,23.67-17.462,33.429-28.173
				c10.594-11.626,7.591-18.664-7.233-23.433c-3.067,4.525-5.528,9.34-9.11,13.077c-2.969,3.101-7.258,4.937-10.964,7.329
				c0.345,0.908,0.688,1.813,1.031,2.72c-3.556-0.573-7.098-1.257-10.671-1.689c-3.827-0.458-7.687-0.683-11.531-1.009
				c-0.248-0.754-0.498-1.509-0.745-2.262c2.464-1.569,4.929-3.139,7.394-4.705c-0.246-0.606-0.489-1.211-0.733-1.817
				c-4.303,0.989-8.605,1.979-12.925,2.97c0.363-11.32,4.057-13.174,20.38-10.074c3.4-4.697,9.569-8.991,1.417-14.88
				c10.672-10.994,10.815-11.703,5.388-26.573c-1.367-3.746-2.749-7.484-4.213-11.193c-2.583-6.545-3.201-12.139,5.138-15.245
				c7.679-2.857,15.556-10.388,21.65,1.909c3.291,6.637,9.728,9.184,14.724,5.765c7.789-5.331,15.365-7.585,24.522-6.861
				c1.626,0.128,3.241-3.747,5.346-4.785c7.705-3.8,15.449-7.642,23.506-10.562c5.596-2.027,12.764-1.033,17.375-4.144
				c6.635-4.471,11.996-11.104,17.138-17.435c6.127-7.551,10.07-17.573,22.668-16.081c1.053,0.125,2.605-2.519,3.653-4.059
				c14.084-20.688,26.978-42.353,47.756-57.51c1.223-0.892,2.188-2.658,2.512-4.181c1.688-7.913,6.921-10.682,14.444-10.794
				c1.362-0.02,2.704-1.397,4.73-2.521c-1.626-0.813-2.384-1.322-3.22-1.578c-1.188-0.362-2.434-0.538-5.334-1.144
				c28.927-18.106,42.592-43.314,42.327-76.729c-8.213,3.413-14.573,8.487-21.087,13.358c-1.965,1.473-4.536,3.618-6.523,3.334
				c-9.423-1.353-12.985,4.295-15.836,11.643c-2.936,7.569-6.547,14.635-15.634,16.618c-14.592,3.182-15.652,5.183-10.799,20.603
				c-8.509,4.704-17.306,9.277-25.753,14.426c-2.477,1.511-4.716,4.376-5.754,7.118c-5.015,13.214-17.201,19.819-26.665,28.704
				c-5.228,4.907-14.256,5.668-19.757,10.403c-11.284,9.709-21.189,21.006-31.99,31.305c-4.492,4.282-9.875,10.907-14.77,10.838
				c-11.429-0.168-17.886,6.281-24.443,13.193c-6.619,6.978-13.491,9.2-23.203,6.775c-5.911-1.477-14.212-1.302-18.866,1.884
				c-7.989,5.479-13.98,12.792-23.399,17.758c-8.802,4.64-17.51,9.364-26.939,13.061c-4.644,1.821-8.508,5.953-12.33,9.47
				c-3.885,3.575-6.644,9.027-11.091,11.143c-3.734,1.777-9.365,0.557-13.768-0.701c-1.189-0.338-2.089-6.058-1.16-8.584
				c2.387-6.492,5.76-12.635,8.948-18.813c4.618-8.944,12.001-11.655,21.344-7.594c7.13,3.1,12.336,0.691,16.322-5.135
				c2.806-4.097,4.65-8.887,7.656-12.809c2.056-2.686,5.487-6.394,8.103-6.241c17.856,1.053,31.826-8.157,43.979-18.506
				c18.748-15.964,39.715-27.593,61.335-38.688c6.926-3.557,14.572-8.129,18.673-14.355c17.505-26.552,43.137-45.025,66.074-65.719
				c11.653-10.513,8.859-27.126,21.653-35.13c0.457-0.287-0.016-1.918,0.114-2.901c1.329-9.958,2.648-19.92,4.108-29.859
				c0.167-1.143,0.9-2.539,1.816-3.184c10.996-7.748,8.944-19.972,12.1-30.901C831.738,1118.402,825.21,1123.587,831.145,1137.483z
				 M487.681,1613.428c-3.444,9.687-7.115,20.335-11.062,30.881c-1.007,2.694-2.367,5.659-4.453,7.481
				c-11.737,10.264-13.877,21.088-6.254,33.643c1.03,1.696,1.833,3.532,2.742,5.302c3.917,7.621,29.685,16.412,37.412,12.639
				c1.421-0.695,2.792-1.935,3.648-3.27c5.74-8.932,13.742-9.45,22.727-6.261c7.229,2.566,13.96,2.789,20.942-1.497
				c1.904-1.166,6.944,0.059,8.751,1.927c6.875,7.098,13.399,14.033,23.033,10.385c3.602,3.376,6.285,5.889,8.966,8.4
				c1.698-3.375,3.63-6.656,5.04-10.145c2.474-6.134,4.058-12.687,7.053-18.533c4.337-8.459,11.936-10.707,20.089-6.277
				c2.963,1.61,5.14,4.666,8.415,7.764c1.093-12.191,8.268-14.444,18.248-14.218c4.605,0.104,11.598-1.385,13.525-4.564
				c8.464-13.966,18.671-27.44,20.272-44.85c-5.533-2.663-10.627-5.044-15.657-7.551c-16.608-8.281-32.655-16.729-34.627-38.606
				c-0.6-6.645-10.417-10.319-17.645-8.53c-4.469,1.104-9.154,2.592-13.613,2.245c-12.214-0.95-21.905,3.419-30.583,11.618
				c-3.534,3.34-9,8.717-11.957,7.815c-8.718-2.655-12.005,3.097-16.84,7.322c-2.188,1.912-4.841,3.772-7.587,4.482
				C521.961,1605.229,505.567,1609.087,487.681,1613.428z M329.167,1075.584c2.313-23.768,1.852-24.945-10.839-25.724
				c0.218,3.108,0.434,6.186,0.668,9.526c-3.12,1.259-5.764,2.329-8.409,3.395c-0.885-0.651-1.768-1.302-2.652-1.954
				c2.031-3.677,4.063-7.356,7.023-12.712c-2.353-0.208-5.228-1.309-7.313-0.463c-3.943,1.599-7.279,4.633-11.142,6.504
				c-8.406,4.069-23.848-2.595-27.264-11.509c-5.888-15.365-6.835-15.835-20.845-10.335c-3.524-11.286-3.524-11.286-10.748-12.295
				c1.234,3.587,2.351,6.833,3.466,10.072c-4.968,2.032-9.737,3.979-16.447,6.722c2.721-10.773,4.787-20.049,7.444-29.146
				c2.284-7.823,1.243-11.58-8.124-9.349c-4.381,1.042-9.117,0.6-13.625,0.826c-4.973-14.186-10.848-26.908-22.282-34.523
				c-5.111,4.971-9.494,9.233-13.876,13.493c-0.955-0.722-1.91-1.445-2.865-2.167c2.817-5.863,5.634-11.726,9.08-18.898
				c-4.7-0.55-8.089-0.947-11.269-1.32c-1.953-2.728-3.694-7.901-6.472-8.536c-8.792-2.011-19.054-5.439-26.811-2.745
				c-28.936,10.051-53.86,25.839-63.976,58.214c8.476,0.86,9.128,6.541,8.105,12.887c-0.952,5.897,2.135,8.631,6.647,11.82
				c9.085,6.421,17.245,0.836,25.652-0.752c14.196-2.68,17.577-0.16,16.779,14.145c3.959-0.464,7.84-0.919,12.671-1.484
				c0.117,7.62,1.326,14.701,9.892,17.349c1.238,0.382,2.457,2.455,2.772,3.938c2.523,11.891,10.915,10.991,20.066,10.125
				c4.191-0.396,8.863,0.969,12.861,2.633c6.446,2.683,12.201,7.624,18.816,9.156c9.287,2.152,19.104,1.959,28.671,2.991
				c2.426,0.261,6.211,0.677,6.919,2.179c7.754,16.459,24.078,17.926,38.496,20.897c10.655,2.195,22.234,0.689,33.287-0.369
				c2.755-0.263,5.068-5.163,7.585-7.932c-2.844-0.9-5.77-1.608-8.509-2.758c-2.212-0.929-4.201-2.389-6.288-3.611
				c1.198-1.718,2.054-3.899,3.652-5.067C316.1,1084.317,322.473,1080.15,329.167,1075.584z M344.154,709.184
				c-8.933,4.78-13.979,11.133-12.741,21.123c0.14,1.123-1.397,2.558-2.34,3.692c-7.546,9.088-15.148,18.127-22.668,27.231
				c-0.289,0.349,0.054,1.22,0.093,1.722c2.991,2.542,5.898,5.015,9.8,8.331c-4.472,1.804-8.041,2.722-11.027,4.574
				c-4.041,2.507-1.119,5.17,7.763,6.646c0.701,11.828,24.394,24.549,33.751,20.595c4.508-1.906,8.449-6.98,12.777-7.144
				c13.634-0.517,13.11-17.201,24.316-19.796c-0.477-7.777,3.064-13.133,8.849-18.306c4.629-4.137,7.512-10.28,10.958-15.667
				c1.528-2.388,3.786-5.224,3.558-7.656c-0.767-8.153,4.198-10.518,10.325-13.538c5.887-2.902,10.689-7.954,16.108-11.869
				c3.627-2.618,7.322-6.629,11.29-7.033c17.123-1.744,34.357-2.388,52.226-3.474c0.64-3.646,1.366-7.78,2.667-15.206
				c-7.776,1.854-13.639,3.667-19.638,4.506c-3.012,0.422-8.834-0.566-8.974-1.542c-0.577-4.056,0.023-8.506,1.251-12.484
				c0.533-1.728,3.471-3.065,5.585-3.892c8.762-3.424,12.479-9.06,11.495-18.953c-0.501-5.041,2.621-10.441,4.105-15.68
				c0.88,0.211,1.761,0.422,2.64,0.631c1.042,3.703,2.082,7.403,3.132,11.138c13.09-4.406,15.167-8.167,11.168-19.103
				c3.392-2.946,6.757-5.871,10.123-8.796c-0.153-0.947-0.309-1.893-0.463-2.837c-13.198-1.436-26.397-2.869-39.605-4.304
				c-2.231,13.234-3.74,13.938-14.394,7.188c-8.286-5.249-10.875-4.298-16.602,6.907c5.507,2.904,11.057,5.724,16.506,8.729
				c5.808,3.206,7.672,10.082,3.383,12.64c-9.543,5.691-19.548,10.66-28.802,16.775c-5.535,3.656-10.008,8.92-17.427,15.723
				c-4.495,0.541-15.412-4.227-18.364,11.341c-11.905-12.565-25.198,1.343-36.899-5.233c-0.544-0.307-2.334,0.336-2.555,0.915
				c-4.283,11.236-16.18,7.593-23.763,12.289c-0.773,0.478-1.41,1.178-2.504,2.111C340.722,703.782,342.081,705.921,344.154,709.184
				z M795.097,673.244c15.839,18.562,31.731,9.261,47.364,3.506c7.967-2.934,13.731-7.483,12.525-17.669
				c-0.408-3.439,2.325-7.342,3.912-10.904c2.685-6.029,5.63-11.938,8.411-17.924c2.896-6.239,0.161-9.387-5.542-12.366
				c-7.195-3.761-16.219-7.356-19.963-13.684c-7.184-12.139-16.897-16.892-31.469-17.843c0,9.785,0,19.444,0,29.484
				c-2.211-0.31-4.631,0.049-5.25-0.842c-10.483-15.101-26.27-13.503-41.512-13.285c-10.067,0.143-17.556,8.058-16.641,16.955
				c0.784,7.636,13.243,15.021,21.557,14.199c5.583-0.551,11.712,0.449,17.043,2.327c7.702,2.713,14.901,6.848,23.358,10.876
				C804.37,654.985,799.476,664.622,795.097,673.244z M640.325,218.076c-8.672-6.416-14.912-11.212-21.38-15.676
				c-1.427-0.985-3.779-1.396-5.506-1.058c-13.563,2.677-26.053,7.315-35.597,18.216c-8.302,9.485-14.982,21.408-30.028,22.087
				c-1.904,0.085-3.78,2.545-5.526,4.065c-10.204,8.885-15.57,20.345-18.218,33.434c-1.278,6.314-0.438,10.469,6.179,13.498
				c6.784,3.106,8.62-1.216,11.57-5.284c5.688-7.841,11.361-15.701,23.341-10.921c2.087,0.832,6.787-0.49,7.871-2.279
				c5.559-9.16,13.577-14.069,23.724-16.374c1.106-0.25,1.788-2.373,3.283-4.506c-12.643-7.189-18.773-17.756-16.438-33.708
				c4.918,4.703,9.833,9.406,14.751,14.106c-0.093-1.07-0.187-2.143-0.28-3.215C611.283,226.589,624.492,222.716,640.325,218.076z
				 M307.075,1135.468c-7.778-1.591-12.874,0.462-16.713,6.841c-1.984,3.299-5.218,6.787-8.673,8.069
				c-7.736,2.87-15.965,4.402-23.989,6.498c-19.227,5.019-36.344,2.726-51.626-11.702c-5.055-4.773-13.357-7.384-20.518-8.3
				c-7.693-0.983-12.097,4.591-11.592,12.726c0.373,6.051,12.787,17.345,18.833,17.187c7.902-0.208,15.756-1.569,21.114,7.099
				c1.369,2.213,6.641,2.796,10.121,2.793c24.631-0.014,48.001-6.148,70.315-16.128
				C304.054,1156.212,309.468,1144.415,307.075,1135.468z M868.846,1018.209c1.424,15.703,8.245,29.556,17.01,37.683
				c7.119,6.604,14.866,5.578,20.409,0.204c6.066-5.879,9.728-14.24,15.052-22.47c-15.458-0.028-15.696-0.474-12.282-16.917
				c-5.054-3.061-9.727-5.894-15.064-9.129C886.959,1010.545,878.169,1014.263,868.846,1018.209z M957.161,968.649
				c-0.602-0.981-1.207-1.959-1.811-2.938c-3.346,11.303-8.994,11.433-16.323,6.668c-1.561-1.016-4.866-0.083-7.061,0.756
				c-4.603,1.765-8.817,4.757-13.518,5.984c-7.393,1.927-8.467,7.999-7.415,13.036c0.617,2.948,6.233,6.006,10.075,6.846
				c5.338,1.164,11.121,0.291,16.335,0.291c1.075-4.502,1.924-8.058,2.801-11.737c4.621,1.337,8.011,2.318,12.461,3.607
				C954.273,983.233,955.718,975.942,957.161,968.649z M848.322,2380.53c1.487-2.929,3.274-5.402,4.059-8.163
				c4.37-15.354,7.918-30.937,17.807-44.166c1.828-2.443,1.104-6.795,1.879-12.696c-22.175,23.151-34.7,40.223-32.525,62.769
				C842.333,2378.99,845.134,2379.71,848.322,2380.53z M882.049,158.361c-1.388,3.205-3.354,7.379-5.013,11.673
				c-2.755,7.12,1.897,12.707,9.676,11.711c1.439-0.183,3.471-1.515,4.149-0.971c11.41,9.151,14.829-2.851,20.729-6.175
				c-2.429-5.761-4.332-10.274-6.848-16.238C899.521,158.361,891.739,158.361,882.049,158.361z M809.695,1875.309
				c2.068-14.837-4.488-26.817-17.141-30.403c-2.643-0.75-7.955-0.134-8.489,1.239c-1.512,3.871-3.185,10.245-1.22,12.456
				C789.956,1866.597,797.53,1874.967,809.695,1875.309z M559.639,593.823c-0.527-8.254-1.066-16.708-1.644-25.74
				c-9.43,4.321-21.978,27.051-21.519,40.49C544.696,603.337,551.485,599.015,559.639,593.823z M833.935,2299.109
				c-0.937-0.242-1.874-0.486-2.812-0.729c-2.483,6.458-4.964,12.919-7.426,19.322c20.337,8.539,30.916,0.452,29.606-22.151
				c-6.169,4.765-11.597,8.962-17.743,13.712C834.817,2304.62,834.376,2301.866,833.935,2299.109z M684.604,591.109
				c-0.897,1.187-1.793,2.374-2.691,3.56c1.998,1.827,4.065,5.285,5.979,5.204c9.509-0.409,19.037-1.38,28.438-2.899
				c6.066-0.98,5.98-5.545,2.957-9.499c-2.666-3.483-6.352-6.186-10.784-10.36c-2.415,6.923-4.396,12.606-6.251,17.929
				C696.003,593.65,690.304,592.38,684.604,591.109z M836.062,1037.601c4.408,10.733,7.859,22.215,22.391,23.329
				c2.078-4.289,4.15-8.57,6.739-13.922C854.734,1043.63,845.396,1040.615,836.062,1037.601z M512.752,418.052
				c0.623-0.635,1.244-1.27,1.865-1.906c-7.967-4.534,4.21-18.458-10.5-19.08c-6.622-0.28-12.957,11.694-11.381,19.12
				C499.346,416.801,506.05,417.426,512.752,418.052z M509.176,162.259c7.417,3.18,14.387,6.169,21.479,9.21
				c2.834-8.706-3.256-18.483-12.062-20.351C509.946,149.282,510.854,156.564,509.176,162.259z M546.455,472.074
				c-1.85-6.417-3.594-12.468-5.337-18.519c-0.899,0.332-1.798,0.661-2.696,0.99c-2.788,14.375,2.433,21.466,18.738,24.813
				c1.167-2.76,2.378-5.62,4.88-11.536C555.315,469.655,551.224,470.771,546.455,472.074z M491.027,263.802
				c0.431-8.128-5.055-12.733-10.273-12.052c-3.302,0.43-6.316,8.03-8.058,12.913c-0.65,1.821,2.684,5.064,4.199,7.661
				c0.767-0.489,1.532-0.974,2.298-1.46c-1.23-3.126-2.464-6.255-4.518-11.467C481.002,261.103,485.546,262.326,491.027,263.802z
				 M174.614,932.673c-0.125,1.339-0.25,2.679-0.374,4.018c5.401,1.501,10.742,3.356,16.24,4.273
				c1.502,0.252,4.974-2.396,4.903-3.548c-0.129-2.096-2.167-5.744-3.534-5.802C186.13,931.372,180.365,932.222,174.614,932.673z
				 M997.745,1016.491c-0.828-1.109-1.654-2.218-2.481-3.328c-4.505,0.716-9.263,0.789-13.413,2.413
				c-2.134,0.831-3.187,4.427-4.729,6.774c2.347,1.512,5.697,4.851,6.862,4.213C988.925,1023.85,993.217,1019.954,997.745,1016.491z
				 M914.317,337.936c4.374-2.11,7.95-2.838,9.799-5.029c1.546-1.832,2.308-7.054,1.258-7.821c-2.713-1.986-6.624-2.34-11.057-3.641
				C914.317,327.347,914.317,331.435,914.317,337.936z M951.632,331.361c0.636-1.001,1.265-2.004,1.896-3.007
				c-5.791-3.115-11.581-6.233-17.372-9.351c-0.521,0.608-1.042,1.219-1.563,1.829c1.56,4.127,3.119,8.257,4.408,11.667
				C944.071,332.043,947.852,331.702,951.632,331.361z M1530.562,925.294c4.456,3.814,8.458,7.242,12.461,10.67
				C1543.031,919.047,1541.491,917.837,1530.562,925.294z M1139.889,2100.205c1.281,0.945,2.563,1.89,3.844,2.834
				c2.922-3.313,5.845-6.628,9.863-11.181c-4.684-1.914-7.151-2.928-10.653-4.357
				C1141.763,2092.41,1140.824,2096.308,1139.889,2100.205z"/>
			<path fill-rule="evenodd" clip-rule="evenodd" d="M1032.424,2256.607c-3.584,0-6.149,0-9.486,0
				c-0.365-1.349-0.682-2.869-1.184-4.323c-4.344-12.557-11.567-14.432-20.825-5.432c-8.129,7.898-13.581,8.209-25.792,0.925
				c-7.722-4.604-12.464-10.157-8.442-20.386c1.625-4.134,1.266-10.732-1.054-14.39c-5.349-8.431-1.356-16.249-0.587-24.29
				c0.114-1.196,1.9-2.563,3.225-3.259c5.22-2.731,10.565-5.229,17.056-8.393c3.188,6.95,6.164,13.438,9.005,19.636
				c-9.225,10.471-7.182,9.343-0.529,21.395c5.114,9.267,14.577,9.096,20.262,15.445c0.747,0.831,2.4,1.103,3.662,1.182
				c13.265,0.815,14.522,2.142,14.688,15.835C1032.441,2252.191,1032.424,2253.83,1032.424,2256.607z"/>
			<path fill-rule="evenodd" clip-rule="evenodd" d="M946.857,1478.872c18.518,8.611,21.566,17.216,12.726,34.174
				c-3.255,6.24-9.591,6.466-14.045,0.825C936.192,1502.042,940.754,1490.89,946.857,1478.872z"/>
			<path fill-rule="evenodd" clip-rule="evenodd" d="M1136.234,2436.547c-10.53,5.299-20.477,10.301-30.676,15.435
				c-3.83-21.075-2.091-26.032,10.202-30.608C1122.813,2418.751,1129.049,2423.131,1136.234,2436.547z"/>
			<path fill-rule="evenodd" clip-rule="evenodd" d="M913.178,2334.185c-2.073-9.578-4.398-19.113-6.084-28.759
				c-0.549-3.123,0.294-6.601,1.008-9.803c0.735-3.279,2.098-6.42,3.182-9.62c2.789,2.865,6.603,5.265,8.168,8.688
				c4.658,10.188,2.833,31.943-2.455,38.598C915.725,2333.588,914.451,2333.886,913.178,2334.185z"/>
			<path fill-rule="evenodd" clip-rule="evenodd" d="M1100.779,2214.482c-3.985-1.48-10.013-1.924-11.428-4.711
				c-1.71-3.359-0.027-8.871,1.275-13.115c0.498-1.619,4.014-2.307,6.154-3.418c2.352,5.81,4.702,11.618,7.053,17.429
				C1102.816,2211.938,1101.799,2213.208,1100.779,2214.482z"/>
			<path fill-rule="evenodd" clip-rule="evenodd" d="M877.174,2181.628c4.464-4.04,7.912-8.594,9.196-8.048
				c3.683,1.565,6.495,5.193,9.65,8.014c-3.028,2.443-5.771,6.033-9.196,6.891C884.847,2188.979,881.763,2185.06,877.174,2181.628z"
				/>
			<path fill-rule="evenodd" clip-rule="evenodd" d="M909.984,1535.942c-5.639-14.822-3.998-18.231,8.146-16.917
				C922.143,1530.195,921.59,1531.344,909.984,1535.942z"/>
			<path fill-rule="evenodd" clip-rule="evenodd" d="M915.831,2256.512c-2.284,8.907-4.096,15.972-6.134,23.908
				C898.984,2270.027,900.544,2262.869,915.831,2256.512z"/>
			<path fill-rule="evenodd" clip-rule="evenodd" d="M909.118,1476.988c7.28-1.436,13.992-2.049,14.915,8.149
				C915.694,1489.323,910.434,1486.473,909.118,1476.988z"/>
			<path fill-rule="evenodd" clip-rule="evenodd" fill="#FFFFFF" d="M401.563,1408.224c-1.605-0.648-3.21-1.301-4.815-1.95
				c-3.539,4.592-7.855,8.788-10.449,13.862c-4.827,9.445-8.032,19.739-13.104,29.028c-3.499,6.407-7.872,14.567-13.843,16.938
				c-12.806,5.083-24.532,11.515-36.441,18.285c-16.102,9.157-31.665,18.165-35.931,37.742c-3.133,14.389-5.116,29.054-6.909,43.682
				c-0.371,3.016,1.703,6.979,3.84,9.497c3.147,3.711,7.918,6.061,11.01,9.806c7.7,9.322,15.316,19.863,27.991,20.753
				c13.516,0.947,28.484,2.146,37.284-12.657c0.441-0.747,1.436-1.383,2.297-1.62c6.704-1.864,11.714-9.241,11.063-16.196
				c-1.769-18.906,4.373-36.13,10.924-53.396c1.971-5.192,4.353-13.27,1.904-16.461c-5.105-6.656-6.347-13.419-4.928-20.438
				c3.625-17.949,8.081-35.743,12.599-53.497C396.069,1423.685,399.031,1416.012,401.563,1408.224z M593.856,1495.006
				c0.791,17.555,8.735,19.354,28.911,11.931C622.786,1485.385,616.426,1482.761,593.856,1495.006z"/>
			<path fill-rule="evenodd" clip-rule="evenodd" fill="#FFFFFF" d="M247.462,1043.274c-5.743,4.411-11.031,8.47-16.41,12.599
				c9.411,8.082,16.318,9.269,20.836,3.366C257.279,1052.192,251.288,1048.118,247.462,1043.274z"/>
			<path fill-rule="evenodd" clip-rule="evenodd" d="M401.563,1408.224c-2.531,7.788-5.493,15.461-7.508,23.378
				c-4.518,17.754-8.974,35.548-12.599,53.497c-1.418,7.02-0.177,13.782,4.928,20.438c2.449,3.191,0.067,11.269-1.904,16.461
				c-6.551,17.266-12.692,34.489-10.924,53.396c0.65,6.955-4.36,14.332-11.063,16.196c-0.862,0.237-1.856,0.873-2.297,1.62
				c-8.8,14.803-23.768,13.604-37.284,12.657c-12.675-0.89-20.292-11.431-27.991-20.753c-3.092-3.745-7.863-6.095-11.01-9.806
				c-2.137-2.519-4.211-6.481-3.84-9.497c1.792-14.628,3.775-29.293,6.909-43.682c4.267-19.577,19.829-28.585,35.931-37.742
				c11.91-6.771,23.635-13.202,36.441-18.285c5.971-2.371,10.344-10.531,13.843-16.938c5.072-9.289,8.277-19.583,13.104-29.028
				c2.593-5.074,6.91-9.271,10.449-13.862C398.352,1406.923,399.957,1407.575,401.563,1408.224z"/>
			<path fill-rule="evenodd" clip-rule="evenodd" d="M593.856,1495.006c22.57-12.245,28.93-9.621,28.911,11.931
				C602.591,1514.359,594.646,1512.561,593.856,1495.006z"/>
			<path fill-rule="evenodd" clip-rule="evenodd" d="M247.462,1043.274c3.826,4.844,9.817,8.918,4.426,15.965
				c-4.518,5.903-11.425,4.716-20.836-3.366C236.432,1051.744,241.72,1047.685,247.462,1043.274z"/>
		</g>
	</g>
</g>
</svg>
