<?xml version="1.0" encoding="UTF-8" standalone="no"?>
<svg
   xmlns:dc="http://purl.org/dc/elements/1.1/"
   xmlns:cc="http://creativecommons.org/ns#"
   xmlns:rdf="http://www.w3.org/1999/02/22-rdf-syntax-ns#"
   xmlns:svg="http://www.w3.org/2000/svg"
   xmlns="http://www.w3.org/2000/svg"
   xmlns:sodipodi="http://sodipodi.sourceforge.net/DTD/sodipodi-0.dtd"
   xmlns:inkscape="http://www.inkscape.org/namespaces/inkscape"
   version="1.1"
   x="0px"
   y="0px"
   width="1584"
   height="396"
   viewBox="0 0 1584 396"
   enable-background="new 0 0 1728 2592"
   xml:space="preserve"
   id="svg50"
   sodipodi:docname="linkedInBanner.svg"
   inkscape:export-filename="/Users/ryan.rockers/Desktop/marketing/linkedInBanner.png"
   inkscape:export-xdpi="96"
   inkscape:export-ydpi="96"
   inkscape:version="1.0 (4035a4f, 2020-05-01)"><metadata
   id="metadata56"><rdf:RDF><cc:Work
       rdf:about=""><dc:format>image/svg+xml</dc:format><dc:type
         rdf:resource="http://purl.org/dc/dcmitype/StillImage" /><dc:title></dc:title></cc:Work></rdf:RDF></metadata><defs
   id="defs54"><linearGradient
     id="a"
     y2="148.33623"
     x2="151.13584"
     y1="22.897128"
     x1="24.714632"
     gradientTransform="scale(0.99888681,1.0011144)"
     gradientUnits="userSpaceOnUse"><stop
       id="stop152"
       offset="0%"
       stop-color="#387EB8" /><stop
       id="stop154"
       offset="100%"
       stop-color="#366994" /></linearGradient><linearGradient
     id="b"
     y2="231.90517"
     x2="238.2592"
     y1="103.26573"
     x1="102.48345"
     gradientTransform="scale(0.99888668,1.0011146)"
     gradientUnits="userSpaceOnUse"><stop
       id="stop157"
       offset="0%"
       stop-color="#FFE052" /><stop
       id="stop159"
       offset="100%"
       stop-color="#FFC331" /></linearGradient></defs><sodipodi:namedview
   inkscape:document-rotation="0"
   pagecolor="#ffffff"
   bordercolor="#666666"
   borderopacity="1"
   objecttolerance="10"
   gridtolerance="10"
   guidetolerance="10"
   inkscape:pageopacity="0"
   inkscape:pageshadow="2"
   inkscape:window-width="1834"
   inkscape:window-height="1072"
   id="namedview52"
   showgrid="false"
   inkscape:zoom="0.53568696"
   inkscape:cx="648.96934"
   inkscape:cy="272.67048"
   inkscape:window-x="1"
   inkscape:window-y="23"
   inkscape:window-maximized="0"
   inkscape:current-layer="layer1" />
<g
   inkscape:groupmode="layer"
   id="layer2"
   inkscape:label="Layer 2"
   style="display:none"><rect
     id="rect149"
     width="1606.4399"
     height="419.76001"
     x="-1.3200004"
     y="-13.199986"
     style="fill:#ffffff" /></g><g
   id="Layer_1"
   display="none">
	<rect
   x="-292.29599"
   y="706.76099"
   display="inline"
   fill="#591300"
   width="2682.269"
   height="1860.187"
   id="rect10" />
</g>

<g
   inkscape:groupmode="layer"
   id="layer1"
   inkscape:label="Layer 1"
   style="display:inline;opacity:0.996"><g
     style="fill:#000000"
     transform="matrix(0.14630191,0,0,0.14630191,670.65753,18.723927)"
     id="Layer_2"><g
       style="fill:#000000"
       id="g47"><g
         style="fill:#000000"
         id="g45"><path
           style="fill:#000000"
           id="path13"
           d="m 1032.424,2256.607 c 0,-2.777 0.018,-4.416 0,-6.055 -0.165,-13.693 -1.423,-15.02 -14.688,-15.835 -1.262,-0.079 -2.915,-0.351 -3.662,-1.182 -5.685,-6.35 -15.147,-6.179 -20.262,-15.445 -6.652,-12.052 -8.695,-10.924 0.529,-21.395 -2.841,-6.198 -5.817,-12.686 -9.005,-19.636 -6.49,3.163 -11.836,5.661 -17.056,8.393 -1.324,0.695 -3.11,2.063 -3.225,3.259 -0.77,8.041 -4.762,15.859 0.587,24.29 2.319,3.657 2.679,10.256 1.054,14.39 -4.021,10.229 0.721,15.781 8.442,20.386 12.211,7.284 17.663,6.974 25.792,-0.925 9.258,-9 16.481,-7.125 20.825,5.432 0.502,1.454 0.818,2.975 1.184,4.323 3.338,0 5.904,0 9.488,0 z m -85.567,-777.735 c -6.104,12.018 -10.665,23.17 -1.319,34.999 4.454,5.641 10.79,5.415 14.045,-0.825 8.841,-16.958 5.792,-25.563 -12.726,-34.174 z m 189.377,957.675 c -7.186,-13.416 -13.422,-17.796 -20.474,-15.174 -12.293,4.576 -14.032,9.533 -10.202,30.608 10.2,-5.133 20.146,-10.135 30.676,-15.434 z M 913.178,2334.185 c 1.273,-0.299 2.547,-0.597 3.818,-0.896 5.288,-6.654 7.113,-28.41 2.455,-38.598 -1.565,-3.424 -5.379,-5.823 -8.168,-8.688 -1.084,3.2 -2.446,6.341 -3.182,9.62 -0.714,3.202 -1.557,6.68 -1.008,9.803 1.686,9.645 4.011,19.18 6.085,28.759 z m 187.601,-119.703 c 1.02,-1.274 2.037,-2.545 3.055,-3.815 -2.351,-5.811 -4.701,-11.619 -7.055,-17.429 -2.139,1.111 -5.654,1.799 -6.152,3.418 -1.303,4.244 -2.985,9.756 -1.275,13.115 1.415,2.788 7.442,3.231 11.427,4.711 z m -223.605,-32.854 c 4.589,3.432 7.673,7.352 9.65,6.856 3.426,-0.857 6.168,-4.447 9.196,-6.891 -3.155,-2.82 -5.968,-6.448 -9.65,-8.014 -1.284,-0.545 -4.732,4.009 -9.196,8.049 z m 32.81,-645.686 c 11.605,-4.599 12.158,-5.747 8.146,-16.917 -12.144,-1.314 -13.784,2.095 -8.146,16.917 z m 5.847,720.57 c -15.287,6.357 -16.847,13.516 -6.134,23.908 2.038,-7.937 3.85,-15.001 6.134,-23.908 z m -6.713,-779.524 c 1.315,9.484 6.576,12.335 14.915,8.149 -0.923,-10.198 -7.635,-9.584 -14.915,-8.149 z"
           fill="#ffffff"
           clip-rule="evenodd"
           fill-rule="evenodd"
           display="none" /><path
           style="fill:#000000"
           id="path15"
           d="m 869.477,1877.675 c -3.13,5.479 -4.615,8.076 -6.072,10.628 5.868,7.148 11.667,14.21 17.667,21.517 -4.718,3.619 -8.392,6.438 -12.804,9.826 -2.883,-2.064 -6.271,-3.666 -8.522,-6.258 -6.789,-7.808 -14.62,-12.297 -25.2,-14.269 -5.88,-1.099 -10.854,-7.933 -15.838,-12.607 -2.569,-2.41 -4.266,-5.754 -7.904,-10.833 1.936,16.988 3.591,31.55 5.251,46.11 -1.261,0.793 -2.523,1.583 -3.785,2.374 -7.115,-17.504 -17.589,-30.936 -36.506,-34.118 -9.865,11.228 -17.84,12.851 -25.007,5.042 -2.754,1.423 -5.587,2.891 -9.657,4.997 -2.6,-10.257 4.785,-24.748 -13.738,-27.276 -11.748,8.582 -26.522,16.664 -27.264,36.356 -0.09,2.391 -4.291,6.187 -7.055,6.672 -25.6,4.511 -30.676,22.574 -31.891,41.819 -1.188,18.821 -0.259,37.777 -0.259,57.815 23.966,-1.084 35.141,13.304 47.855,29.495 -2.876,1.884 -4.912,3.048 -6.76,4.462 -6.59,5.044 -6.801,10.255 -2.776,17.798 2.519,4.718 1.463,11.632 1.09,17.501 -0.223,3.485 -2.234,6.854 -3.735,11.112 11.148,1.94 13.022,7.339 7.064,16.333 -0.909,1.372 1.144,5.682 2.909,7.668 5.833,6.56 12.789,12.194 18.137,19.093 6.072,7.833 10.232,17.166 16.444,24.862 4.687,5.803 10.941,10.808 19.798,7.879 9.519,-3.144 10.724,-10.681 10.606,-19.147 -0.124,-9.015 -0.027,-18.035 2.074,-28.056 8.345,15.312 19.458,24.228 38.386,24.627 -3.261,-20.932 1.475,-36.985 26.798,-40.166 0.627,4.769 1.449,9.165 1.732,13.595 0.588,9.074 0.051,18.306 1.521,27.218 1.845,11.172 3.254,21.142 -6.11,30.438 -5.946,5.903 -5.677,17.775 -19.048,17.908 1.692,-5.001 3.365,-9.942 5.658,-16.716 -4.652,1.311 -8.165,2.303 -12.268,3.458 -1.833,-2.156 -3.829,-4.507 -8.068,-9.496 -2.056,13.973 -4.471,25.188 -5.181,36.509 -0.906,14.462 -3.549,27.319 -16.011,36.937 -7.25,5.599 -9.277,14.092 -7.188,23.443 2.678,11.96 4.859,24.031 7.256,36.07 25.872,-6.437 37.389,-24.921 43.081,-68.862 -1.246,-0.633 -2.949,-1.068 -4.036,-2.132 -3.102,-3.032 -9.015,-8.199 -8.4,-9.201 3.429,-5.603 7.718,-11.502 13.225,-14.704 3.451,-2.006 8.839,0.042 10.677,6.889 1.586,5.921 5.709,12.027 10.421,16.042 6.767,5.761 10.545,12.058 12.305,20.745 0.984,4.846 5.441,8.964 8.23,13.475 2.145,3.465 4.993,6.813 5.946,10.61 1.018,4.061 0.64,8.648 0.054,12.896 -1.458,10.64 1.464,18.625 9.444,26.647 5.152,5.18 8.798,14.896 8.211,22.184 -1.714,21.108 -5.878,42.021 -9.132,63.001 -1.293,8.301 -0.245,14.759 9.356,14.301 2.438,-4.383 4.602,-8.272 6.995,-12.579 6.406,7.935 11.297,13.997 16.187,20.057 1.123,-0.561 2.245,-1.123 3.365,-1.688 0,-3.314 0.233,-6.647 -0.035,-9.941 -1.47,-17.813 -3.564,-35.588 -4.362,-53.43 -0.324,-7.252 2.699,-14.207 10.879,-17.368 8.456,44.452 21.832,64.014 39.882,62.771 1.071,-5.28 0.768,-12.975 3.171,-13.941 9.003,-3.622 8.453,5.168 10.287,10.316 3.867,10.877 8.937,15.763 20.565,19.527 1.595,-4.915 3.188,-9.833 5.756,-17.731 6.244,7.093 12.423,11.672 15.137,17.79 3.625,8.175 8.688,10.801 16.533,9.909 -3.25,-25.472 -1.522,-51.877 -16.673,-75.063 6.549,-2.734 10.679,-4.457 15.158,-6.324 2.377,7.333 4.457,13.941 6.665,20.51 2.803,8.339 6.244,15.572 15.872,18.932 3.687,1.286 6.59,7.17 8.221,11.563 3.907,10.518 7.549,20.802 19.945,24.18 0.895,0.243 1.779,1.003 2.384,1.754 8.234,10.224 -0.894,19.486 -1.751,29.204 -0.551,6.275 -4.725,8.069 -10.73,9.005 -25.278,3.925 -50.367,9.12 -75.693,12.647 -27.237,3.792 -53.421,-1.352 -79.139,-10.993 -76.268,-28.593 -145.428,-69.812 -211.11,-117.354 -2.41,-1.742 -4.83,-3.682 -6.655,-5.996 -13.795,-17.477 -33.012,-28.661 -49.334,-43.094 -71.377,-63.117 -143.415,-125.855 -187.781,-213.033 -30.293,-59.529 -55.831,-120.594 -65.626,-187.205 -5.374,-36.546 -6.004,-73.278 5.197,-108.718 5.607,-17.742 15.574,-34.225 24.569,-50.733 5.995,-11.004 13.754,-21.049 20.807,-31.649 -9.31,-5.337 -15.047,-2.723 -21.406,4.131 -15.802,17.035 -36.813,23.788 -59.061,28.337 -28.707,5.872 -54.351,-2.549 -79.544,-14.571 -2.1,-1.005 -4.079,-2.533 -6.288,-3 -26.58,-5.614 -41.375,-25.646 -54.33,-46.53 -6.614,-10.661 -10.788,-23.712 -12.738,-36.202 -3.401,-21.785 -6.143,-44.018 -5.576,-65.971 0.527,-20.36 4.496,-40.896 9.23,-60.814 5.068,-21.319 17.646,-39.214 31.313,-56.234 12.463,-15.521 23.823,-31.95 36.657,-47.144 11.644,-13.784 25.391,-25.813 36.805,-39.763 13.645,-16.676 25.84,-34.538 38.552,-51.965 2.327,-3.188 4.131,-6.758 7.186,-11.825 -14.748,1.488 -23.476,-15.462 -39.125,-9.588 -1.385,0.521 -4.497,-1.316 -5.698,-2.898 -8.766,-11.551 -20.816,-12.704 -33.336,-9.791 -24.291,5.652 -48.589,11.596 -70.053,25.224 -5.786,3.674 -15.143,2.919 -15.373,13.839 -0.034,1.626 -9.082,4.291 -13.925,4.218 -4.264,-0.064 -8.949,-2.636 -12.623,-5.255 -8.539,-6.092 -16.626,-12.505 -28.125,-7.696 -1.202,0.502 -3.352,-0.26 -4.626,-1.097 -7.993,-5.253 -16.322,-4.811 -24.838,-1.782 -6.276,2.229 -11.604,1.704 -15.753,-4.267 -1.485,-2.137 -3.808,-3.694 -5.762,-5.501 -8.136,-7.521 -16.651,-13.435 -19.297,-26.484 -2.887,-14.233 -11.86,-26.364 -29.316,-28.598 -7.51,-0.958 -10.257,-8.233 -10.068,-15.356 0.397,-14.87 1.351,-29.727 2.144,-44.586 0.068,-1.294 1.344,-3.23 0.862,-3.744 -8.928,-9.529 1.878,-15.256 3.865,-22.819 4.372,-16.628 7.44,-33.604 10.876,-50.474 0.285,-1.393 -0.222,-3.975 -1.139,-4.429 -9.309,-4.601 -8.392,-12.512 -6.756,-20.482 -16.307,-6.944 -17.407,-11.014 -7.573,-25.632 4.451,-6.617 8.634,-13.416 12.856,-20.184 0.863,-1.386 1.359,-3.001 2.038,-4.54 -10.328,-3.588 -18.317,-12.753 -30.517,-11.168 -1.332,0.173 -3.743,-3.884 -4.8,-6.347 -6.124,-14.266 3.33,-26.208 6.831,-38.855 0.869,-3.139 8.125,-4.413 12.313,-6.775 1.855,-1.047 4.626,-2.482 4.871,-4.067 2.567,-16.64 14.546,-26.405 26.145,-36.391 6.042,-5.202 12.936,-9.454 18.7,-14.921 3.403,-3.229 6.894,-7.737 7.624,-12.121 1.444,-8.681 6.452,-13.044 14.139,-13.668 11.556,-0.936 17.818,-6.383 20.737,-17.557 1.553,-5.945 4.273,-12.761 8.727,-16.475 5.48,-4.57 13.316,-6.314 21.328,-9.801 -0.4,-0.604 -1.933,-2.921 -3.919,-5.923 2.059,-0.388 4.117,-1.2 6.124,-1.087 11.513,0.641 19.689,-3.965 25.204,-14.258 2.784,-5.195 6.938,-9.653 12.097,-16.648 -1.079,-6.253 -16.088,-11.773 -10.165,-24.768 7.699,5.396 7.394,5.14 14.396,-3.199 7.48,-8.905 15.54,-17.328 23.487,-25.832 8.796,-9.415 13.908,-19.956 12.575,-33.335 -1.176,-11.819 2.51,-21.301 14.054,-27.199 9.18,-4.691 10.21,-13.84 10.369,-24.098 -13.215,-2.858 -34.082,2.386 -27.698,-20.39 9.638,-8.038 18.722,-13.797 25.363,-21.63 7.794,-9.191 2.806,-19.807 -5.594,-21.72 -6.013,-8.374 -9.819,-15.04 -14.933,-20.478 -7.751,-8.241 -8.329,-13.81 -0.563,-21.79 7.927,-8.145 7.927,-8.145 6.557,-18.107 -8.646,3.721 -16.999,7.314 -25.222,10.852 -7.746,-12.066 -7.388,-33.318 0.558,-43.034 1.325,-1.618 4.18,-1.881 5.969,-3.24 14.769,-11.212 30.144,-21.994 34.602,-43.077 -6.747,-0.312 -12.197,-0.564 -20.935,-0.967 3.27,-4.458 4.706,-8.395 7.441,-9.796 10.628,-5.45 17.227,-11.848 14.627,-25.519 -1.815,-9.543 -0.351,-19.71 -0.351,-27.843 22.005,-5.3 42.294,-10.054 62.507,-15.121 8.384,-2.103 16.372,-21.266 15.534,-29.747 -1.225,-12.383 0.122,-25.021 0.423,-37.55 0.013,-0.576 0.357,-1.434 0.804,-1.668 19.925,-10.376 28.715,-39.401 58.985,-32.362 -0.401,-8.024 -0.693,-13.842 -1.039,-20.74 10.945,-4.283 14.899,-13.606 14.92,-25.562 0.003,-2.284 2.496,-5.824 4.638,-6.612 6.829,-2.505 11.853,-5.048 6.987,-13.459 -0.41,-0.709 1.173,-2.59 1.856,-3.914 1.563,-3.029 3.141,-6.049 5.233,-10.071 -4.968,-0.807 -8.352,-1.355 -11.705,-1.899 2.069,-19.972 10.313,-27.424 30.04,-27.63 7.467,-0.077 15.834,1.629 15.618,-10.576 -0.039,-2.157 3.914,-5.041 6.615,-6.465 7.817,-4.124 16.191,-7.224 23.854,-11.591 6.435,-3.668 10.596,-9.181 7.46,-17.431 -0.458,-1.205 -0.619,-2.662 -0.447,-3.937 0.342,-2.537 20.171,-21.223 22.814,-21.408 14.649,-1.029 28.048,-0.487 37.285,14.473 7.072,11.457 15.911,22.281 30.737,27.217 11.08,-19.478 28.7,-14.155 45.788,-11.489 3.224,0.502 6.593,0.07 9.894,0.07 0.102,-1.138 0.205,-2.273 0.306,-3.411 -1.265,-0.409 -2.691,-0.573 -3.748,-1.286 -1.339,-0.908 -2.376,-2.26 -3.542,-3.422 1.148,-0.875 2.312,-2.522 3.445,-2.504 9.913,0.171 19.854,-4.95 29.913,2.156 3.174,2.242 11.626,0.745 15.274,-2.099 12.289,-9.592 25.087,-12.498 40.563,-10.35 12.195,1.694 25.372,2.685 36.035,-7.011 1.282,-1.165 5.153,-1.256 6.588,-0.187 8.332,6.218 15.732,2.005 23.351,-1.298 4.261,-1.849 8.635,-3.439 12.881,-5.321 4.48,-1.982 7.438,-1.371 11.015,2.769 9.832,11.379 19.107,11.235 29.903,1.262 9.661,-8.927 19.978,-14.733 34.174,-8.926 6.853,2.803 14.991,2.463 21.02,3.326 2.651,4.415 3.891,9.053 6.878,10.956 8.573,5.468 13.008,3.186 15.367,-6.651 2.343,-9.75 8.841,-13.056 18.676,-9.498 18.635,6.745 19.563,8.655 15.665,31 12.271,2.419 24.489,4.909 36.746,7.208 5.588,1.046 8.508,3.968 9.449,9.76 1.316,8.11 6.027,10.014 13.773,7.004 9.543,-3.708 19.092,-6.145 25.525,-15.904 2.234,-3.39 11.049,-2.443 16.855,-3.476 -0.246,1.261 -0.492,2.525 -0.737,3.787 3.596,2.319 7.026,6.253 10.824,6.647 10.151,1.055 20.662,1.891 30.649,0.345 9.099,-1.41 15.704,-0.017 22.628,6.054 9.82,8.612 11.508,7.941 21.558,-2.24 0.827,-0.841 2.865,-1.164 4.095,-0.826 12.862,3.532 25.67,7.269 38.505,10.901 4.268,1.208 10.113,0.949 12.514,3.722 3.962,4.571 6.782,10.84 -0.881,16.146 -2.636,1.826 -3.818,5.757 -7.319,11.386 8.417,-1.367 14.061,-2.116 19.627,-3.243 3.896,-0.787 7.681,-2.127 11.531,-3.162 10.567,-2.841 21.259,-6.197 28.148,7.773 -1.237,2.394 -3.379,6.522 -6.637,12.813 14.82,-4.305 28.937,10.565 40.681,-4.89 7.496,6.142 14.966,12.269 22.437,18.393 -0.966,1.51 -1.932,3.018 -2.897,4.529 -4.352,-0.192 -8.952,-1.338 -12.989,-0.297 -3.774,0.976 -6.951,4.269 -10.69,6.738 12.744,9.365 22.734,5.606 32.516,-1.672 6.885,-5.126 14.144,-9.077 24.375,-2.537 -3.66,8.538 -7.396,17.245 -11.483,26.778 6.118,-2.948 12.979,-6.257 20.34,-9.806 4.605,9.195 12.563,11.615 22.226,11.952 15.124,0.525 19.01,4.576 18.413,19.501 -0.261,6.552 2.229,9.396 7.727,11.749 9.29,3.974 17.709,10.227 28.219,1.445 3.552,-2.971 10.119,-2.614 13.05,4.374 0.915,2.188 4.494,3.79 7.173,4.575 3.449,1.013 7.25,0.753 10.845,1.366 22.824,3.88 26.996,10.24 21.999,33.897 -15.135,0.593 -27.4,5.986 -33.445,22.055 19.746,17.72 39.675,4.602 59.739,1.715 0.914,11.45 10.421,12.097 18.718,13.809 9.05,1.869 14.419,5.516 9.468,16.55 5.523,0.735 10.348,2.027 15.121,1.861 7.569,-0.265 9.406,4.323 10.838,10.266 1.573,6.53 -3.077,7.709 -7.315,9.698 -9.117,4.278 -19.108,7.519 -24.755,19.797 8.926,-0.685 16.459,1.202 22.444,-6.084 4.717,-5.743 13.143,-4.574 16.583,1.911 2.775,5.231 5.487,10.497 9.445,18.09 -9.31,2.653 -18.63,5.311 -27.949,7.966 0.128,1.004 0.256,2.007 0.383,3.009 5.652,-0.674 11.289,-1.505 16.957,-1.984 8.189,-0.691 16.562,-2.376 24.55,-1.313 7.578,1.008 15.339,3.652 16.967,14.019 0.418,2.664 6.733,4.616 10.538,6.498 12.757,6.31 14.909,9.998 13.544,24.794 -7.356,2.245 -15.312,3.04 -19.44,12.517 -1.493,3.422 -10.228,6.649 -17.772,0.728 -5.667,-4.449 -14.795,-4.486 -22.382,-6.487 -0.637,1.108 -1.274,2.216 -1.912,3.326 2.895,2.356 6.053,4.458 8.604,7.137 2.705,2.839 7.419,7.031 6.734,9.223 -2.089,6.684 1.545,8.849 5.752,11.922 3.909,2.853 9.943,4.69 7.178,12.163 -0.482,1.302 2.903,4.788 5.167,6.194 5.062,3.148 10.473,5.764 15.871,8.33 8.165,3.885 10.896,9.205 4.983,17.443 -8.141,-0.114 -14.271,-11.296 -24.645,-5.776 10.21,11.125 17.506,12.542 30.505,7.996 5.3,-1.854 10.097,-2.558 12.896,5.755 2.643,7.848 9.229,14.313 13.745,21.595 4.69,7.561 4.192,8.85 -4.269,12.837 5.06,10.685 8.17,23.125 15.735,31.585 7.569,8.462 5.971,19.25 12.066,27.549 6.275,8.538 12.362,17.536 16.535,27.196 3.745,8.673 5.014,18.467 6.938,27.858 1.729,8.409 0.125,14.964 -10.164,16.567 -2.134,0.331 -4.073,3.446 -5.639,5.616 -6.492,8.993 -12.672,18.215 -19.326,27.082 -1.003,1.335 -3.976,1.856 -5.948,1.693 -9.713,-0.809 -13.36,3.291 -11.744,12.426 0.578,3.275 -0.906,7.023 -1.878,10.434 -0.885,3.105 -3.156,5.978 -3.414,9.07 -0.9,10.829 -0.668,10.847 -8.506,17.321 1.067,4.559 2.18,9.306 3.295,14.049 -0.946,-0.325 -1.891,-0.648 -2.836,-0.974 -2.617,4.806 -4.994,9.764 -7.923,14.373 -2.752,4.334 -6.084,8.298 -10.686,14.471 2.144,7.504 -4.428,13.73 -11.964,19.052 -16.768,11.838 -31.968,24.663 -38.918,45.188 -3.125,9.226 -11.606,12.175 -22.836,11.556 2.459,4.083 4.185,6.946 5.66,9.394 -6.352,13.422 -12.71,26.529 -18.774,39.774 -4.781,10.438 -11.858,18.292 -22.805,22.425 -8.902,3.359 -15.873,8.561 -21.156,17.124 -3.857,6.253 -11.035,10.388 -16.417,15.783 -5.537,5.553 -10.585,11.593 -16.067,17.201 -2.024,2.068 -4.765,3.419 -7.041,5.262 -4.96,4.008 -9.873,8.074 -14.706,12.23 -1.229,1.057 -2.038,3.615 -3.121,3.667 -12.016,0.563 -18.143,9.354 -25.272,17.073 -1.795,1.947 -5.349,2.521 -8.218,3.181 -17.499,4.026 -38.206,23.718 -37.348,41.365 0.617,12.593 -4.18,21.364 -8.801,31.283 -2.557,5.488 -1.82,9.869 1.756,15.46 21.308,33.289 43.853,66.034 61.861,101.076 8.967,17.451 18.61,32.273 34.106,43.64 0.528,0.389 1.041,0.872 1.394,1.421 31.603,49.164 64.414,97.604 70.794,158.29 2.421,23.051 8.819,45.654 12.056,68.653 5.036,35.781 4.43,71.634 -1.765,107.326 -0.62,3.563 -1.226,7.388 -0.59,10.864 3.08,16.805 -0.272,33.054 -3.524,49.356 -1.039,5.207 -3.112,10.579 -2.599,15.665 2.146,21.247 -6.71,39.453 -14.195,58.316 -18.249,45.995 -35.824,92.255 -53.667,138.408 -0.121,0.312 -0.175,0.65 -0.315,0.948 -30.739,65.522 -61.358,131.104 -92.399,196.488 -3.507,7.385 -9.41,13.623 -14.159,20.429 -14.433,20.683 -29.378,41.033 -43.127,62.161 -17.767,27.298 -33.773,55.766 -52.076,82.683 -11.707,17.212 -25.957,32.733 -39.516,48.631 -8.373,9.818 -17.595,18.917 -27.16,29.112 -16.276,-14.009 -33.444,-27.291 -56.128,-21.216 -3.709,3.06 -7.417,6.121 -11.124,9.181 -2.327,-3.508 -4.655,-7.016 -8.366,-12.604 6.579,0.423 10.027,0.646 14.78,0.955 -1.73,-22.88 -4.481,-45.003 -22.04,-61.921 -7.248,-6.985 -11.781,-13.479 -6.495,-24.193 3.138,-6.359 3.671,-14.077 4.965,-21.258 2.712,-15.026 -0.36,-18.483 -15.337,-17.871 -13.342,0.546 -17.086,-1.878 -23.007,-15.895 4.285,-0.733 8.337,-1.149 12.233,-2.16 4.928,-1.272 9.836,-2.766 14.574,-4.616 16.271,-6.36 16.814,-22.044 20.777,-35.652 0.358,-1.239 0.615,-2.842 0.141,-3.945 -8.666,-20.18 -0.621,-39.887 1.542,-59.752 -0.869,0.351 -1.739,0.7 -2.608,1.051 -2.218,-4.399 -6.012,-8.672 -6.367,-13.217 -1.306,-16.716 9.128,-34.737 29.625,-34.892 2.663,-0.02 5.334,0.134 7.98,-0.058 6.52,-0.472 16.434,1.28 18.832,-2.155 5.04,-7.224 6.474,-17.121 8.576,-26.111 0.465,-1.984 -2.033,-5.143 -3.875,-7.092 -5.238,-5.535 -11.102,-10.485 -16.228,-16.113 -5.259,-5.776 -9.031,-11.84 -3.325,-20.073 3.611,-5.213 2.135,-10.034 -4.688,-12.222 -3.773,-1.21 -7.381,-2.935 -11.023,-4.409 -5.159,9.054 -15.137,14.729 -24.508,11.188 -8.765,-3.312 -13.17,1.445 -18.212,5.852 -7.63,6.67 -15.31,12.793 -26.164,12.261 -0.403,-0.75 -1.095,-1.446 -0.958,-1.87 4.362,-13.393 -1.996,-20.659 -12.987,-27.728 -7.729,-4.971 -13.457,-13.545 -19.042,-21.261 -9.677,-13.368 -19.188,-26.947 -27.452,-41.205 -3.412,-5.885 -1.446,-15.406 -5.521,-20.248 -4.211,-5.005 -12.931,-6.067 -15.031,-14.283 -0.984,-3.842 -2.55,-7.536 -3.803,-11.166 0.495,-0.743 0.728,-1.52 1.229,-1.777 4.64,-2.393 12.354,-3.773 13.399,-7.209 2.552,-8.381 2.063,-17.698 2.682,-26.646 0.063,-0.872 -0.421,-2.282 -1.081,-2.628 -10.313,-5.422 -8.036,-14.288 -7.265,-23.305 0.259,-2.984 -2.6,-7.284 -5.292,-9.289 -11.204,-8.351 -12.293,-19.35 -3.05,-29.26 5.124,-5.496 9.871,-11.318 2.892,-19.891 -2.983,-3.661 -2.031,-10.525 -3.089,-17.362 13.847,0.495 23.714,-4.021 28.807,-16.08 4.42,-10.468 8.868,-20.923 14.38,-33.923 4.616,-0.749 9.044,-5.188 8.504,-14.574 -0.154,-2.752 3.978,-6.526 7.007,-8.541 10.486,-6.966 12.611,-14.239 6.389,-24.631 -3.817,-6.37 2.277,-21.779 9.421,-23.825 13.263,-3.801 18.867,-16.683 13.055,-29.067 -1.947,-4.148 -3.587,-8.798 -3.863,-13.312 -0.947,-15.57 -8.352,-27.613 -18.816,-38.514 -4.451,-4.639 -7.813,-10.321 -11.789,-15.688 7.335,-1.615 13.186,-2.902 21,-4.625 -6.909,-5.971 -11.258,-11.374 -16.899,-14.127 -5.146,-2.512 -11.971,-3.727 -17.573,-2.754 -15.301,2.652 -32.591,-5.092 -38.388,-19.586 11.707,-2.272 22.729,-5.682 33.822,2.297 10.947,7.871 23.576,9.994 36.562,9.238 5.722,-19.009 -12.021,-18.534 -21.277,-24.976 0.353,-0.836 0.705,-1.671 1.06,-2.505 2.481,0.346 5.112,1.368 7.407,0.856 2.8,-0.623 7.758,-3.069 7.594,-3.806 -2.851,-12.916 2.322,-22.519 15.363,-31.486 -11.763,-2.396 -20.102,-4.001 -28.391,-5.816 -5.596,-1.226 -9.913,-2.897 -11.932,-9.938 -1.256,-4.382 -7.729,-7.267 -11.871,-10.814 -4.231,-3.627 -8.476,-7.238 -11.334,-9.677 -9.979,0 -19.731,-0.9 -29.241,0.24 -10.78,1.296 -22.845,0.097 -31.234,10.756 4.164,7.369 8.34,14.765 12.434,22.008 -12.56,3.229 -24.382,6.267 -36.397,9.356 -0.198,2.361 -0.679,4.337 -0.469,6.239 1.026,9.433 -0.179,17.156 -12.046,18.028 -1.492,0.109 -3.167,1.292 -4.275,2.439 -7.986,8.285 -17.324,8.754 -27.561,5.271 -2.789,-0.949 -5.779,-1.299 -9.504,-2.1 -3.632,7.706 -7.797,13.69 -17.859,15.644 -4.072,0.789 -8.141,12.722 -8.386,19.718 -0.473,13.509 1.742,27.115 2.89,40.677 1.141,13.495 2.752,27.03 -4.028,39.649 -4.972,-4.609 -8.873,-10.434 -14.249,-12.604 -5.795,-2.338 -12.969,-1.249 -19.516,-1.654 -0.784,-10.595 -1.559,-21.035 -2.499,-33.776 -7.683,5.582 -9.556,9.354 -7.047,15.426 6.142,14.844 10.896,29.878 6.41,46.422 -0.881,3.241 0.457,8.658 2.828,10.949 12.778,12.356 11.815,23.963 -3.178,36.65 6.176,3.668 10.516,6.871 15.336,8.971 8.11,3.534 11.581,8.061 9.454,17.759 -4.415,20.127 5.321,49.148 34.094,54.395 22.133,4.036 21.847,5.392 23.189,28.086 0.334,5.64 1.147,11.253 1.476,16.896 0.128,2.209 0.392,5.396 -0.864,6.542 -6.235,5.692 -8.8,11.628 -3.216,19.088 4.008,5.353 8.026,10.705 12.252,15.884 1.576,1.931 3.749,3.373 5.937,5.288 -12.104,5.803 -28.956,-0.665 -34.09,-13.673 -5.985,-15.164 -18.434,-18.227 -33.021,-21.158 0.754,6.422 1.488,11.576 1.943,16.758 0.742,8.466 -1.691,15.348 -8.606,21.123 -3.102,2.591 -5.462,7.65 -5.755,11.763 -1.494,21.146 11.779,34.076 27.163,45.218 1.946,1.411 6.187,-0.448 9.376,-0.613 2.731,-0.153 5.482,-0.041 10.195,-0.041 z m -38.332,-740.192 c -6.684,0.458 -12.209,0.922 -17.746,1.2 -13.48,0.679 -26.546,16.732 -24.258,29.884 1.758,10.091 -3.509,18.951 -11.96,17.699 -9.497,-1.408 -14.941,3.534 -22.065,7.95 -8.84,5.477 -11.231,11.96 -10.401,21.331 0.208,2.34 -0.838,5.917 -2.564,7.115 -9.715,6.729 -13.226,15.942 -11.086,28.193 -5.201,0 -9.144,-0.217 -13.056,0.039 -15.498,1.011 -39.666,22.065 -42.823,37.162 -2.615,12.508 -4.846,14.459 -17.784,14.852 -6.583,0.198 -13.179,0.033 -19.771,0.033 0.534,-0.98 1.07,-1.961 1.605,-2.942 -5.511,-4.671 -10.535,-10.175 -16.682,-13.754 -5.159,-3.006 -15.287,2.538 -14.153,7.363 0.83,3.544 6.032,7.968 9.805,8.533 9.199,1.378 12.812,5.676 9.956,14.121 -4.084,12.08 -9.081,23.854 -13.678,35.725 -4.442,0 -8.637,0 -12.86,0 1.172,-20.005 -1.601,-22.699 -21.729,-23.43 -5.207,-0.19 -10.307,-2.411 -15.535,-3.054 -13.499,-1.649 -26.724,-3.328 -36.151,10.756 -3.466,5.177 -10.015,8.488 -15.589,11.956 -2.188,1.357 -5.633,1.386 -8.375,1.023 -6.066,-0.799 -12.05,-2.224 -18.065,-3.405 -5.897,-1.155 -11.792,-2.326 -17.947,-3.541 -3.654,1.709 -8.145,5.433 -12.783,5.628 -9.162,0.389 -16.358,1.733 -18.65,12.216 -0.383,1.746 -3.111,3.516 -5.13,4.27 -6.214,2.326 -11.073,5.308 -12.88,12.541 -0.494,1.977 -5.248,2.889 -10.156,5.347 1.258,-4.469 1.509,-6.069 2.141,-7.501 7.594,-17.219 5.289,-26.838 -9.17,-38.61 -1.502,-1.222 -2.669,-2.933 -3.763,-4.569 -7.192,-10.75 -20.038,-10.688 -26.67,0.149 -6.894,11.261 -13.467,22.745 -20.861,33.667 -4.432,6.547 -10.351,12.068 -15.287,18.299 -26.295,33.198 -52.653,66.352 -78.592,99.825 -5.522,7.124 -10.198,15.183 -13.78,23.448 -3.112,7.187 -2.895,15.884 -6.314,22.85 -7.8,15.896 -11.842,33.08 -11.393,49.955 0.729,27.323 0.672,55.37 11.48,81.261 6.983,16.728 14.108,34.45 36.043,37.372 1.774,0.236 3.554,1.622 5.01,2.854 4.061,3.436 7.423,8.115 12.006,10.45 19.735,10.041 40.831,15.759 62.907,17.757 22.97,2.078 45.618,-4.89 61.318,-18.587 25.247,-22.021 43.329,-51.063 53.131,-84.124 7.33,-24.718 19.619,-47.172 33.897,-68.295 6.379,-9.436 13.047,-18.039 15.332,-29.525 1.757,-8.833 9.112,-11.214 17.008,-13.018 7.284,-1.665 13.72,-2.687 16.589,5.473 4.825,-0.377 8.847,-0.688 14.696,-1.145 -2.698,4.669 -4.023,7.703 -6.018,10.206 -1.97,2.472 -4.617,4.41 -6.842,6.467 7.665,12.81 15.746,16.231 27.448,9.93 11.125,-5.989 26.738,-2.682 33.991,-16.452 8.994,1.334 13.678,-2.364 12.708,-12.432 12.962,2.272 22.126,-2.788 29.764,-11.718 1.904,-2.228 4.364,-4.674 7.025,-5.442 15.382,-4.443 23.67,-17.462 33.429,-28.173 10.594,-11.626 7.591,-18.664 -7.233,-23.433 -3.067,4.525 -5.528,9.34 -9.11,13.077 -2.969,3.101 -7.258,4.937 -10.964,7.329 0.345,0.908 0.688,1.813 1.031,2.72 -3.556,-0.573 -7.098,-1.257 -10.671,-1.689 -3.827,-0.458 -7.687,-0.683 -11.531,-1.009 -0.248,-0.754 -0.498,-1.509 -0.745,-2.262 2.464,-1.569 4.929,-3.139 7.394,-4.705 -0.246,-0.606 -0.489,-1.211 -0.733,-1.817 -4.303,0.989 -8.605,1.979 -12.925,2.97 0.363,-11.32 4.057,-13.174 20.38,-10.074 3.4,-4.697 9.569,-8.991 1.417,-14.88 10.672,-10.994 10.815,-11.703 5.388,-26.573 -1.367,-3.746 -2.749,-7.484 -4.213,-11.193 -2.583,-6.545 -3.201,-12.139 5.138,-15.245 7.679,-2.857 15.556,-10.388 21.65,1.909 3.291,6.637 9.728,9.184 14.724,5.765 7.789,-5.331 15.365,-7.585 24.522,-6.861 1.626,0.128 3.241,-3.747 5.346,-4.785 7.705,-3.8 15.449,-7.642 23.506,-10.562 5.596,-2.027 12.764,-1.033 17.375,-4.144 6.635,-4.471 11.996,-11.104 17.138,-17.435 6.127,-7.551 10.07,-17.573 22.668,-16.081 1.053,0.125 2.605,-2.519 3.653,-4.059 14.084,-20.688 26.978,-42.353 47.756,-57.51 1.223,-0.892 2.188,-2.658 2.512,-4.181 1.688,-7.913 6.921,-10.682 14.444,-10.794 1.362,-0.02 2.704,-1.397 4.73,-2.521 -1.626,-0.813 -2.384,-1.322 -3.22,-1.578 -1.188,-0.362 -2.434,-0.538 -5.334,-1.144 28.927,-18.106 42.592,-43.314 42.327,-76.729 -8.213,3.413 -14.573,8.487 -21.087,13.358 -1.965,1.473 -4.536,3.618 -6.523,3.334 -9.423,-1.353 -12.985,4.295 -15.836,11.643 -2.936,7.569 -6.547,14.635 -15.634,16.618 -14.592,3.182 -15.652,5.183 -10.799,20.603 -8.509,4.704 -17.306,9.277 -25.753,14.426 -2.477,1.511 -4.716,4.376 -5.754,7.118 -5.015,13.214 -17.201,19.819 -26.665,28.704 -5.228,4.907 -14.256,5.668 -19.757,10.403 -11.284,9.709 -21.189,21.006 -31.99,31.305 -4.492,4.282 -9.875,10.907 -14.77,10.838 -11.429,-0.168 -17.886,6.281 -24.443,13.193 -6.619,6.978 -13.491,9.2 -23.203,6.775 -5.911,-1.477 -14.212,-1.302 -18.866,1.884 -7.989,5.479 -13.98,12.792 -23.399,17.758 -8.802,4.64 -17.51,9.364 -26.939,13.061 -4.644,1.821 -8.508,5.953 -12.33,9.47 -3.885,3.575 -6.644,9.027 -11.091,11.143 -3.734,1.777 -9.365,0.557 -13.768,-0.701 -1.189,-0.338 -2.089,-6.058 -1.16,-8.584 2.387,-6.492 5.76,-12.635 8.948,-18.813 4.618,-8.944 12.001,-11.655 21.344,-7.594 7.13,3.1 12.336,0.691 16.322,-5.135 2.806,-4.097 4.65,-8.887 7.656,-12.809 2.056,-2.686 5.487,-6.394 8.103,-6.241 17.856,1.053 31.826,-8.157 43.979,-18.506 18.748,-15.964 39.715,-27.593 61.335,-38.688 6.926,-3.557 14.572,-8.129 18.673,-14.355 17.505,-26.552 43.137,-45.025 66.074,-65.719 11.653,-10.513 8.859,-27.126 21.653,-35.13 0.457,-0.287 -0.016,-1.918 0.114,-2.901 1.329,-9.958 2.648,-19.92 4.108,-29.859 0.167,-1.143 0.9,-2.539 1.816,-3.184 10.996,-7.748 8.944,-19.972 12.1,-30.901 -33.007,0.716 -39.535,5.901 -33.6,19.797 z m -343.464,475.945 c -3.444,9.687 -7.115,20.335 -11.062,30.881 -1.007,2.694 -2.367,5.659 -4.453,7.481 -11.737,10.264 -13.877,21.088 -6.254,33.643 1.03,1.696 1.833,3.532 2.742,5.302 3.917,7.621 29.685,16.412 37.412,12.639 1.421,-0.695 2.792,-1.935 3.648,-3.27 5.74,-8.932 13.742,-9.45 22.727,-6.261 7.229,2.566 13.96,2.789 20.942,-1.497 1.904,-1.166 6.944,0.059 8.751,1.927 6.875,7.098 13.399,14.033 23.033,10.385 3.602,3.376 6.285,5.889 8.966,8.4 1.698,-3.375 3.63,-6.656 5.04,-10.145 2.474,-6.134 4.058,-12.687 7.053,-18.533 4.337,-8.459 11.936,-10.707 20.089,-6.277 2.963,1.61 5.14,4.666 8.415,7.764 1.093,-12.191 8.268,-14.444 18.248,-14.218 4.605,0.104 11.598,-1.385 13.525,-4.564 8.464,-13.966 18.671,-27.44 20.272,-44.85 -5.533,-2.663 -10.627,-5.044 -15.657,-7.551 -16.608,-8.281 -32.655,-16.729 -34.627,-38.606 -0.6,-6.645 -10.417,-10.319 -17.645,-8.53 -4.469,1.104 -9.154,2.592 -13.613,2.245 -12.214,-0.95 -21.905,3.419 -30.583,11.618 -3.534,3.34 -9,8.717 -11.957,7.815 -8.718,-2.655 -12.005,3.097 -16.84,7.322 -2.188,1.912 -4.841,3.772 -7.587,4.482 -16.305,4.199 -32.699,8.057 -50.585,12.398 z M 329.167,1075.584 c 2.313,-23.768 1.852,-24.945 -10.839,-25.724 0.218,3.108 0.434,6.186 0.668,9.526 -3.12,1.259 -5.764,2.329 -8.409,3.395 -0.885,-0.651 -1.768,-1.302 -2.652,-1.954 2.031,-3.677 4.063,-7.356 7.023,-12.712 -2.353,-0.208 -5.228,-1.309 -7.313,-0.463 -3.943,1.599 -7.279,4.633 -11.142,6.504 -8.406,4.069 -23.848,-2.595 -27.264,-11.509 -5.888,-15.365 -6.835,-15.835 -20.845,-10.335 -3.524,-11.286 -3.524,-11.286 -10.748,-12.295 1.234,3.587 2.351,6.833 3.466,10.072 -4.968,2.032 -9.737,3.979 -16.447,6.722 2.721,-10.773 4.787,-20.049 7.444,-29.146 2.284,-7.823 1.243,-11.58 -8.124,-9.349 -4.381,1.042 -9.117,0.6 -13.625,0.826 -4.973,-14.186 -10.848,-26.908 -22.282,-34.523 -5.111,4.971 -9.494,9.233 -13.876,13.493 -0.955,-0.722 -1.91,-1.445 -2.865,-2.167 2.817,-5.863 5.634,-11.726 9.08,-18.898 -4.7,-0.55 -8.089,-0.947 -11.269,-1.32 -1.953,-2.728 -3.694,-7.901 -6.472,-8.536 -8.792,-2.011 -19.054,-5.439 -26.811,-2.745 -28.936,10.051 -53.86,25.839 -63.976,58.214 8.476,0.86 9.128,6.541 8.105,12.887 -0.952,5.897 2.135,8.631 6.647,11.82 9.085,6.421 17.245,0.836 25.652,-0.752 14.196,-2.68 17.577,-0.16 16.779,14.145 3.959,-0.464 7.84,-0.919 12.671,-1.484 0.117,7.62 1.326,14.701 9.892,17.349 1.238,0.382 2.457,2.455 2.772,3.938 2.523,11.891 10.915,10.991 20.066,10.125 4.191,-0.396 8.863,0.969 12.861,2.633 6.446,2.683 12.201,7.624 18.816,9.156 9.287,2.152 19.104,1.959 28.671,2.991 2.426,0.261 6.211,0.677 6.919,2.179 7.754,16.459 24.078,17.926 38.496,20.897 10.655,2.195 22.234,0.689 33.287,-0.369 2.755,-0.263 5.068,-5.163 7.585,-7.932 -2.844,-0.9 -5.77,-1.608 -8.509,-2.758 -2.212,-0.929 -4.201,-2.389 -6.288,-3.611 1.198,-1.718 2.054,-3.899 3.652,-5.067 6.137,-4.49 12.51,-8.657 19.204,-13.223 z m 14.987,-366.4 c -8.933,4.78 -13.979,11.133 -12.741,21.123 0.14,1.123 -1.397,2.558 -2.34,3.692 -7.546,9.088 -15.148,18.127 -22.668,27.231 -0.289,0.349 0.054,1.22 0.093,1.722 2.991,2.542 5.898,5.015 9.8,8.331 -4.472,1.804 -8.041,2.722 -11.027,4.574 -4.041,2.507 -1.119,5.17 7.763,6.646 0.701,11.828 24.394,24.549 33.751,20.595 4.508,-1.906 8.449,-6.98 12.777,-7.144 13.634,-0.517 13.11,-17.201 24.316,-19.796 -0.477,-7.777 3.064,-13.133 8.849,-18.306 4.629,-4.137 7.512,-10.28 10.958,-15.667 1.528,-2.389 3.786,-5.225 3.558,-7.657 -0.767,-8.153 4.198,-10.518 10.325,-13.538 5.887,-2.902 10.689,-7.954 16.108,-11.869 3.627,-2.618 7.322,-6.629 11.29,-7.033 17.123,-1.744 34.357,-2.388 52.226,-3.474 0.64,-3.646 1.366,-7.78 2.667,-15.206 -7.776,1.854 -13.639,3.667 -19.638,4.506 -3.012,0.422 -8.834,-0.566 -8.974,-1.542 -0.577,-4.056 0.023,-8.506 1.251,-12.484 0.533,-1.728 3.471,-3.065 5.585,-3.892 8.762,-3.424 12.479,-9.06 11.495,-18.953 -0.501,-5.041 2.621,-10.441 4.105,-15.68 0.88,0.211 1.761,0.422 2.64,0.631 1.042,3.703 2.082,7.403 3.132,11.138 13.09,-4.406 15.167,-8.167 11.168,-19.103 3.392,-2.946 6.757,-5.871 10.123,-8.796 -0.153,-0.947 -0.309,-1.893 -0.463,-2.837 -13.198,-1.436 -26.397,-2.869 -39.605,-4.304 -2.231,13.234 -3.74,13.938 -14.394,7.188 -8.286,-5.249 -10.875,-4.298 -16.602,6.907 5.507,2.904 11.057,5.724 16.506,8.729 5.808,3.206 7.672,10.082 3.383,12.64 -9.543,5.691 -19.548,10.66 -28.802,16.775 -5.535,3.656 -10.008,8.92 -17.427,15.723 -4.495,0.541 -15.412,-4.227 -18.364,11.341 -11.905,-12.565 -25.198,1.343 -36.899,-5.233 -0.544,-0.307 -2.334,0.336 -2.555,0.915 -4.283,11.236 -16.18,7.593 -23.763,12.289 -0.773,0.478 -1.41,1.178 -2.504,2.111 1.465,2.305 2.824,4.444 4.897,7.707 z m 450.943,-35.94 c 15.839,18.562 31.731,9.261 47.364,3.506 7.967,-2.934 13.731,-7.483 12.525,-17.669 -0.408,-3.439 2.325,-7.342 3.912,-10.904 2.685,-6.029 5.63,-11.938 8.411,-17.924 2.896,-6.239 0.161,-9.387 -5.542,-12.366 -7.195,-3.761 -16.219,-7.356 -19.963,-13.684 -7.184,-12.139 -16.897,-16.892 -31.469,-17.843 0,9.784 0,19.443 0,29.484 -2.211,-0.31 -4.631,0.049 -5.25,-0.842 -10.483,-15.101 -26.27,-13.503 -41.512,-13.285 -10.067,0.143 -17.556,8.058 -16.641,16.955 0.784,7.636 13.243,15.021 21.557,14.199 5.583,-0.551 11.712,0.449 17.043,2.327 7.702,2.713 14.901,6.848 23.358,10.876 -4.52,8.911 -9.414,18.548 -13.793,27.17 z M 640.325,218.076 c -8.672,-6.416 -14.912,-11.212 -21.38,-15.676 -1.427,-0.985 -3.779,-1.397 -5.506,-1.059 -13.563,2.677 -26.053,7.315 -35.597,18.216 -8.302,9.485 -14.982,21.408 -30.028,22.087 -1.904,0.085 -3.78,2.545 -5.526,4.065 -10.204,8.885 -15.57,20.345 -18.218,33.434 -1.278,6.314 -0.438,10.469 6.179,13.498 6.784,3.106 8.62,-1.216 11.57,-5.284 5.688,-7.842 11.361,-15.701 23.341,-10.922 2.087,0.832 6.787,-0.49 7.871,-2.279 5.559,-9.16 13.577,-14.069 23.724,-16.374 1.106,-0.25 1.788,-2.373 3.283,-4.506 -12.643,-7.189 -18.773,-17.756 -16.438,-33.708 4.918,4.703 9.833,9.406 14.751,14.106 -0.093,-1.07 -0.187,-2.143 -0.28,-3.215 13.212,-3.87 26.421,-7.743 42.254,-12.383 z m -333.25,917.392 c -7.778,-1.591 -12.874,0.462 -16.713,6.841 -1.984,3.299 -5.218,6.787 -8.673,8.069 -7.736,2.87 -15.965,4.402 -23.989,6.498 -19.227,5.019 -36.344,2.726 -51.626,-11.702 -5.055,-4.773 -13.357,-7.384 -20.518,-8.3 -7.693,-0.983 -12.097,4.591 -11.592,12.726 0.373,6.051 12.787,17.345 18.833,17.187 7.902,-0.208 15.756,-1.569 21.114,7.099 1.369,2.213 6.641,2.796 10.121,2.793 24.631,-0.014 48.001,-6.148 70.315,-16.128 9.707,-4.339 15.121,-16.136 12.728,-25.083 z m 561.771,-117.259 c 1.424,15.703 8.245,29.556 17.01,37.683 7.119,6.604 14.866,5.578 20.409,0.204 6.066,-5.879 9.728,-14.24 15.052,-22.47 -15.458,-0.028 -15.696,-0.474 -12.282,-16.917 -5.054,-3.061 -9.727,-5.894 -15.064,-9.129 -7.012,2.965 -15.802,6.683 -25.125,10.629 z m 88.315,-49.56 c -0.602,-0.981 -1.207,-1.959 -1.811,-2.938 -3.346,11.303 -8.994,11.433 -16.323,6.668 -1.561,-1.016 -4.866,-0.083 -7.061,0.756 -4.603,1.765 -8.817,4.757 -13.518,5.984 -7.393,1.927 -8.467,7.999 -7.415,13.036 0.617,2.948 6.233,6.006 10.075,6.846 5.338,1.164 11.121,0.291 16.335,0.291 1.075,-4.502 1.924,-8.058 2.801,-11.737 4.621,1.337 8.011,2.318 12.461,3.607 1.568,-7.929 3.013,-15.22 4.456,-22.513 z M 848.322,2380.53 c 1.487,-2.929 3.274,-5.402 4.059,-8.163 4.37,-15.354 7.918,-30.937 17.807,-44.166 1.828,-2.443 1.104,-6.795 1.879,-12.696 -22.175,23.151 -34.7,40.223 -32.525,62.769 2.791,0.716 5.592,1.436 8.78,2.256 z M 882.049,158.361 c -1.388,3.205 -3.354,7.379 -5.013,11.673 -2.755,7.12 1.897,12.707 9.676,11.711 1.439,-0.183 3.471,-1.515 4.149,-0.971 11.41,9.152 14.829,-2.851 20.729,-6.175 -2.429,-5.761 -4.332,-10.274 -6.848,-16.238 -5.221,0 -13.003,0 -22.693,0 z m -72.354,1716.948 c 2.068,-14.837 -4.488,-26.817 -17.141,-30.403 -2.643,-0.75 -7.955,-0.134 -8.489,1.239 -1.512,3.871 -3.185,10.245 -1.22,12.456 7.111,7.996 14.685,16.366 26.85,16.708 z M 559.639,593.823 c -0.527,-8.254 -1.066,-16.708 -1.644,-25.74 -9.43,4.321 -21.978,27.051 -21.519,40.49 8.22,-5.236 15.009,-9.558 23.163,-14.75 z m 274.296,1705.286 c -0.937,-0.242 -1.874,-0.486 -2.812,-0.729 -2.483,6.458 -4.964,12.919 -7.426,19.322 20.337,8.539 30.916,0.452 29.606,-22.151 -6.169,4.765 -11.597,8.962 -17.743,13.712 -0.743,-4.643 -1.184,-7.397 -1.625,-10.154 z m -149.331,-1708 c -0.897,1.187 -1.793,2.374 -2.691,3.56 1.998,1.827 4.065,5.285 5.979,5.204 9.509,-0.409 19.037,-1.38 28.438,-2.899 6.066,-0.98 5.98,-5.545 2.957,-9.499 -2.666,-3.483 -6.352,-6.186 -10.784,-10.36 -2.415,6.923 -4.396,12.606 -6.251,17.93 -6.249,-1.395 -11.948,-2.665 -17.648,-3.936 z m 151.458,446.492 c 4.408,10.733 7.859,22.215 22.391,23.329 2.078,-4.289 4.15,-8.57 6.739,-13.922 -10.458,-3.378 -19.796,-6.393 -29.13,-9.407 z M 512.752,418.052 c 0.623,-0.635 1.244,-1.27 1.865,-1.906 -7.967,-4.534 4.21,-18.458 -10.5,-19.079 -6.622,-0.28 -12.957,11.693 -11.381,19.119 6.61,0.615 13.314,1.24 20.016,1.866 z m -3.576,-255.793 c 7.417,3.18 14.387,6.169 21.479,9.21 2.834,-8.706 -3.256,-18.483 -12.062,-20.351 -8.647,-1.836 -7.739,5.446 -9.417,11.141 z m 37.279,309.815 c -1.85,-6.417 -3.594,-12.468 -5.337,-18.519 -0.899,0.332 -1.798,0.661 -2.696,0.99 -2.788,14.375 2.433,21.466 18.738,24.813 1.167,-2.76 2.378,-5.62 4.88,-11.536 -6.725,1.833 -10.816,2.949 -15.585,4.252 z M 491.027,263.802 c 0.431,-8.128 -5.055,-12.733 -10.273,-12.052 -3.302,0.43 -6.316,8.03 -8.058,12.913 -0.65,1.821 2.684,5.064 4.199,7.661 0.767,-0.489 1.532,-0.974 2.298,-1.46 -1.23,-3.126 -2.464,-6.255 -4.518,-11.467 6.327,1.706 10.871,2.929 16.352,4.405 z M 174.614,932.673 c -0.125,1.339 -0.25,2.679 -0.374,4.018 5.401,1.501 10.742,3.356 16.24,4.273 1.502,0.252 4.974,-2.396 4.903,-3.548 -0.129,-2.096 -2.167,-5.744 -3.534,-5.802 -5.719,-0.242 -11.484,0.608 -17.235,1.059 z m 823.131,83.818 c -0.828,-1.109 -1.654,-2.218 -2.481,-3.328 -4.505,0.716 -9.263,0.789 -13.413,2.413 -2.134,0.831 -3.187,4.427 -4.729,6.774 2.347,1.512 5.697,4.851 6.862,4.213 4.941,-2.713 9.233,-6.609 13.761,-10.072 z M 914.317,337.936 c 4.374,-2.109 7.95,-2.838 9.799,-5.028 1.546,-1.832 2.308,-7.054 1.258,-7.821 -2.713,-1.986 -6.624,-2.34 -11.057,-3.641 0,5.901 0,9.99 0,16.49 z m 37.315,-6.575 c 0.636,-1.001 1.265,-2.004 1.896,-3.007 -5.791,-3.115 -11.581,-6.233 -17.372,-9.351 -0.521,0.608 -1.042,1.219 -1.563,1.829 1.56,4.127 3.119,8.257 4.408,11.667 5.07,-0.455 8.851,-0.797 12.631,-1.138 z m 578.93,593.933 c 4.456,3.814 8.458,7.242 12.461,10.67 0.01,-16.917 -1.532,-18.127 -12.461,-10.67 z m -390.673,1174.911 c 1.281,0.945 2.563,1.89 3.844,2.834 2.922,-3.313 5.845,-6.628 9.863,-11.181 -4.684,-1.914 -7.151,-2.928 -10.653,-4.357 -1.18,4.909 -2.119,8.807 -3.054,12.704 z"
           clip-rule="evenodd"
           fill-rule="evenodd" /><path
           style="fill:#000000"
           id="path17"
           d="m 1032.424,2256.607 c -3.584,0 -6.149,0 -9.486,0 -0.365,-1.349 -0.682,-2.869 -1.184,-4.323 -4.344,-12.557 -11.567,-14.432 -20.825,-5.432 -8.129,7.898 -13.581,8.209 -25.792,0.925 -7.722,-4.604 -12.464,-10.157 -8.442,-20.386 1.625,-4.134 1.266,-10.732 -1.054,-14.39 -5.349,-8.431 -1.356,-16.249 -0.587,-24.29 0.114,-1.196 1.9,-2.563 3.225,-3.259 5.22,-2.731 10.565,-5.229 17.056,-8.393 3.188,6.95 6.164,13.438 9.005,19.636 -9.225,10.471 -7.182,9.343 -0.529,21.395 5.114,9.267 14.577,9.096 20.262,15.445 0.747,0.831 2.4,1.103 3.662,1.182 13.265,0.815 14.522,2.142 14.688,15.835 0.018,1.639 10e-4,3.278 10e-4,6.055 z"
           clip-rule="evenodd"
           fill-rule="evenodd" /><path
           style="fill:#000000"
           id="path19"
           d="m 946.857,1478.872 c 18.518,8.611 21.566,17.216 12.726,34.174 -3.255,6.24 -9.591,6.466 -14.045,0.825 -9.346,-11.829 -4.784,-22.981 1.319,-34.999 z"
           clip-rule="evenodd"
           fill-rule="evenodd" /><path
           style="fill:#000000"
           id="path21"
           d="m 1136.234,2436.547 c -10.53,5.299 -20.477,10.301 -30.676,15.435 -3.83,-21.075 -2.091,-26.032 10.202,-30.608 7.053,-2.623 13.289,1.757 20.474,15.173 z"
           clip-rule="evenodd"
           fill-rule="evenodd" /><path
           style="fill:#000000"
           id="path23"
           d="m 913.178,2334.185 c -2.073,-9.578 -4.398,-19.113 -6.084,-28.759 -0.549,-3.123 0.294,-6.601 1.008,-9.803 0.735,-3.279 2.098,-6.42 3.182,-9.62 2.789,2.865 6.603,5.265 8.168,8.688 4.658,10.188 2.833,31.943 -2.455,38.598 -1.272,0.299 -2.546,0.597 -3.819,0.896 z"
           clip-rule="evenodd"
           fill-rule="evenodd" /><path
           style="fill:#000000"
           id="path25"
           d="m 1100.779,2214.482 c -3.985,-1.48 -10.013,-1.924 -11.428,-4.711 -1.71,-3.359 -0.027,-8.871 1.275,-13.115 0.498,-1.619 4.014,-2.307 6.154,-3.418 2.352,5.81 4.702,11.618 7.053,17.429 -1.017,1.271 -2.034,2.541 -3.054,3.815 z"
           clip-rule="evenodd"
           fill-rule="evenodd" /><path
           style="fill:#000000"
           id="path27"
           d="m 877.174,2181.628 c 4.464,-4.04 7.912,-8.594 9.196,-8.048 3.683,1.565 6.495,5.193 9.65,8.014 -3.028,2.443 -5.771,6.033 -9.196,6.891 -1.977,0.494 -5.061,-3.425 -9.65,-6.857 z"
           clip-rule="evenodd"
           fill-rule="evenodd" /><path
           style="fill:#000000"
           id="path29"
           d="m 909.984,1535.942 c -5.639,-14.822 -3.998,-18.231 8.146,-16.917 4.013,11.17 3.46,12.319 -8.146,16.917 z"
           clip-rule="evenodd"
           fill-rule="evenodd" /><path
           style="fill:#000000"
           id="path31"
           d="m 915.831,2256.512 c -2.284,8.907 -4.096,15.972 -6.134,23.908 -10.713,-10.393 -9.153,-17.551 6.134,-23.908 z"
           clip-rule="evenodd"
           fill-rule="evenodd" /><path
           style="fill:#000000"
           id="path33"
           d="m 909.118,1476.988 c 7.28,-1.436 13.992,-2.049 14.915,8.149 -8.339,4.186 -13.599,1.336 -14.915,-8.149 z"
           clip-rule="evenodd"
           fill-rule="evenodd" /><path
           style="fill:#000000"
           id="path35"
           d="m 401.563,1408.224 c -1.605,-0.648 -3.21,-1.301 -4.815,-1.95 -3.539,4.592 -7.855,8.788 -10.449,13.862 -4.827,9.445 -8.032,19.739 -13.104,29.028 -3.499,6.407 -7.872,14.567 -13.843,16.938 -12.806,5.083 -24.532,11.515 -36.441,18.285 -16.102,9.157 -31.665,18.165 -35.931,37.742 -3.133,14.389 -5.116,29.054 -6.909,43.682 -0.371,3.016 1.703,6.979 3.84,9.497 3.147,3.711 7.918,6.061 11.01,9.806 7.7,9.322 15.316,19.863 27.991,20.753 13.516,0.947 28.484,2.146 37.284,-12.657 0.441,-0.747 1.436,-1.383 2.297,-1.62 6.704,-1.864 11.714,-9.241 11.063,-16.196 -1.769,-18.906 4.373,-36.13 10.924,-53.396 1.971,-5.192 4.353,-13.27 1.904,-16.461 -5.105,-6.656 -6.347,-13.419 -4.928,-20.438 3.625,-17.949 8.081,-35.743 12.599,-53.497 2.014,-7.917 4.976,-15.59 7.508,-23.378 z m 192.293,86.782 c 0.791,17.555 8.735,19.354 28.911,11.931 0.019,-21.552 -6.341,-24.176 -28.911,-11.931 z"
           fill="#ffffff"
           clip-rule="evenodd"
           fill-rule="evenodd"
           display="none" /><path
           style="fill:#000000"
           id="path37"
           d="m 247.462,1043.274 c -5.743,4.411 -11.031,8.47 -16.41,12.599 9.411,8.082 16.318,9.269 20.836,3.366 5.391,-7.047 -0.6,-11.121 -4.426,-15.965 z"
           fill="#ffffff"
           clip-rule="evenodd"
           fill-rule="evenodd"
           display="none" /><path
           style="fill:#000000"
           id="path39"
           d="m 401.563,1408.224 c -2.531,7.788 -5.493,15.461 -7.508,23.378 -4.518,17.754 -8.974,35.548 -12.599,53.497 -1.418,7.02 -0.177,13.782 4.928,20.438 2.449,3.191 0.067,11.269 -1.904,16.461 -6.551,17.266 -12.692,34.489 -10.924,53.396 0.65,6.955 -4.36,14.332 -11.063,16.196 -0.862,0.237 -1.856,0.873 -2.297,1.62 -8.8,14.803 -23.768,13.604 -37.284,12.657 -12.675,-0.89 -20.292,-11.431 -27.991,-20.753 -3.092,-3.745 -7.863,-6.095 -11.01,-9.806 -2.137,-2.519 -4.211,-6.481 -3.84,-9.497 1.792,-14.628 3.775,-29.293 6.909,-43.682 4.267,-19.577 19.829,-28.585 35.931,-37.742 11.91,-6.771 23.635,-13.202 36.441,-18.285 5.971,-2.371 10.344,-10.531 13.843,-16.938 5.072,-9.289 8.277,-19.583 13.104,-29.028 2.593,-5.074 6.91,-9.271 10.449,-13.862 1.604,0.649 3.209,1.301 4.815,1.95 z"
           clip-rule="evenodd"
           fill-rule="evenodd" /><path
           style="fill:#000000"
           id="path41"
           d="m 593.856,1495.006 c 22.57,-12.245 28.93,-9.621 28.911,11.931 -20.176,7.422 -28.121,5.624 -28.911,-11.931 z"
           clip-rule="evenodd"
           fill-rule="evenodd" /><path
           style="fill:#000000"
           id="path43"
           d="m 247.462,1043.274 c 3.826,4.844 9.817,8.918 4.426,15.965 -4.518,5.903 -11.425,4.716 -20.836,-3.366 5.38,-4.129 10.668,-8.188 16.41,-12.599 z"
           clip-rule="evenodd"
           fill-rule="evenodd" /></g></g></g></g><g
   inkscape:groupmode="layer"
   id="layer3"
   inkscape:label="Layer 3"
   style="display:inline"><g
     id="g182"
     transform="matrix(0.74814627,0,0,0.74814627,1075.2179,201.29485)"><path
       id="path164"
       fill="url(#a)"
       d="m 126.916,0.072 c -64.832,0 -60.784,28.115 -60.784,28.115 l 0.072,29.128 h 61.868 V 66.06 H 41.631 c 0,0 -41.486,-4.705 -41.486,60.71 0,65.417 36.21,63.097 36.21,63.097 h 21.61 v -30.356 c 0,0 -1.165,-36.21 35.632,-36.21 h 61.362 c 0,0 34.475,0.557 34.475,-33.319 V 33.97 c 0,0 5.236,-33.898 -62.518,-33.898 z M 92.802,19.66 a 11.12,11.12 0 0 1 11.13,11.13 11.12,11.12 0 0 1 -11.13,11.13 11.12,11.12 0 0 1 -11.13,-11.13 11.12,11.12 0 0 1 11.13,-11.13 z"
       style="fill:url(#a)" /><path
       id="path166"
       fill="url(#b)"
       d="m 128.757,254.126 c 64.832,0 60.784,-28.115 60.784,-28.115 l -0.072,-29.127 H 127.6 v -8.745 h 86.441 c 0,0 41.486,4.705 41.486,-60.712 0,-65.416 -36.21,-63.096 -36.21,-63.096 h -21.61 v 30.355 c 0,0 1.165,36.21 -35.632,36.21 h -61.362 c 0,0 -34.475,-0.557 -34.475,33.32 v 56.013 c 0,0 -5.235,33.897 62.518,33.897 z m 34.114,-19.586 a 11.12,11.12 0 0 1 -11.13,-11.13 11.12,11.12 0 0 1 11.13,-11.131 11.12,11.12 0 0 1 11.13,11.13 11.12,11.12 0 0 1 -11.13,11.13 z"
       style="fill:url(#b)" /></g><g
     id="g198"
     transform="matrix(0.76394068,0,0,0.76394068,1271.9959,197.06918)"><path
       id="path184"
       fill="#f7df1e"
       d="M 0,0 H 256 V 256 H 0 Z" /><path
       id="path186"
       d="m 67.312,213.932 19.59,-11.856 c 3.78,6.701 7.218,12.371 15.465,12.371 7.905,0 12.89,-3.092 12.89,-15.12 v -81.798 h 24.057 v 82.138 c 0,24.917 -14.606,36.259 -35.916,36.259 -19.245,0 -30.416,-9.967 -36.087,-21.996 m 85.07,-2.576 19.588,-11.341 c 5.157,8.421 11.859,14.607 23.715,14.607 9.969,0 16.325,-4.984 16.325,-11.858 0,-8.248 -6.53,-11.17 -17.528,-15.98 l -6.013,-2.58 c -17.357,-7.387 -28.87,-16.667 -28.87,-36.257 0,-18.044 13.747,-31.792 35.228,-31.792 15.294,0 26.292,5.328 34.196,19.247 l -18.732,12.03 c -4.125,-7.389 -8.591,-10.31 -15.465,-10.31 -7.046,0 -11.514,4.468 -11.514,10.31 0,7.217 4.468,10.14 14.778,14.608 l 6.014,2.577 c 20.45,8.765 31.963,17.7 31.963,37.804 0,21.654 -17.012,33.51 -39.867,33.51 -22.339,0 -36.774,-10.654 -43.819,-24.574" /></g><g
     id="g219"
     transform="matrix(1.8994786,0,0,1.8994786,1271.8887,0.75614793)"><path
       id="path202"
       d="M 103.5,103.5 H 0 V 0 H 103.5 Z M 5,98.5 H 98.5 V 5 H 5 Z"
       class="st0" /><path
       id="path204"
       d="M 3.8,3.8 H 99.7 V 99.7 H 3.8 Z"
       class="st1" /><path
       style="stroke-width:0.844291"
       id="path206"
       d="M 83.348227,72.16001 V 46.746871 c 0,-7.683042 -11.735635,-12.833213 -26.426287,-6.838752 V 72.16001 h 8.69619 V 44.382859 c 4.559168,-1.519723 9.878198,-0.844291 9.878198,3.039445 V 72.16001 Z M 39.698418,25.133039 h -9.456052 l -13.002071,46.520396 7.260897,0.422145 3.54602,-13.0865 h 13.93079 l 3.46159,13.0865 h 8.358474 z m -9.793768,26.510715 4.896884,-19.503105 5.150171,19.503105 z"
       class="st0" /></g><g
     id="g271"
     fill-rule="evenodd"
     clip-rule="evenodd"
     transform="matrix(0.83926334,0,0,0.83926334,1070.2092,0.98990598)"><path
       id="path263"
       fill="#1f0040"
       d="M 10,10 H 230 V 224 H 10 Z" /><g
       id="g269"
       fill="#d291ff"><path
         id="path265"
         d="M 0,0 V 234 H 240.001 V 0 Z M 10,10 H 230.001 V 224 H 10 Z" /><path
         id="path267"
         d="m 67.836,132.5 -7.92,29.865 C 59.75,163.189 59.42,163.5 58.43,163.5 H 43.746 c -0.99,0 -1.156,-0.33 -0.99,-1.484 l 28.379,-99.33 c 0.496,-1.814 0.826,-3.246 0.99,-8.195 0,-0.66 0.33,-0.99 0.826,-0.99 h 20.955 c 0.658,0 0.988,0.166 1.154,0.99 l 31.846,107.689 c 0.164,0.826 0,1.32 -0.826,1.32 h -16.5 c -0.824,0 -1.32,-0.311 -1.484,-0.969 L 99.846,132.5 Z M 95.9,116.266 C 93.095,105.211 86.314,80.965 83.839,69.25 h -0.164 c -2.145,11.715 -7.561,31.496 -11.686,47.006 z m 53.605,10.234 c 0.166,13.531 6.602,22.605 21.781,22.605 5.939,0 11.029,-0.785 16.309,-3.096 0.66,-0.33 1.156,-0.164 1.156,0.66 v 12.541 c 0,0.99 -0.33,1.484 -0.99,1.979 -5.279,2.641 -11.855,3.795 -20.105,3.795 -26.399,0 -36.3,-19.469 -36.3,-41.25 0,-23.594 12.209,-42.898 33.661,-42.898 21.779,0 29.369,18.314 29.369,33.164 0,4.785 -0.33,8.746 -0.824,10.56 -0.166,0.824 -0.496,1.115 -1.32,1.279 -1.98,0.33 -7.92,0.66 -16.666,0.66 H 149.505 Z M 169.8,112.75 c 5.115,0 6.932,0 7.426,-0.164 0,-0.66 0.166,-1.227 0.166,-1.721 0,-5.445 -2.641,-15.439 -13.035,-15.439 -9.57,0 -13.695,8.414 -14.686,17.324 z" /></g></g><path
     d="M 537.4896,462.50497 H 807.24659 V 724.90496 H 537.4896 Z"
     fill="url(#a)"
     id="path375"
     style="fill:url(#a-6);stroke-width:0.494356" /><g
     id="g455"
     transform="matrix(0.68359765,0,0,0.68359765,-244.00469,-306.5481)"><rect
       y="450.24347"
       x="525.22815"
       height="286.92349"
       width="294.28"
       id="rect405"
       style="display:inline;fill:#21213a;fill-opacity:1;stroke-width:1" /><path
       style="stroke-width:0.494356"
       id="path377"
       fill="#31c5f0"
       d="M 537.4896,462.50497 H 807.24659 V 724.90496 H 537.4896 Z m -12.2615,274.66199 h 294.28 V 450.24347 h -294.28 z m 198.3938,-169.2115 c -9.6869,0 -12.99711,4.90451 -12.99711,8.95081 0,4.4141 2.20681,7.4796 15.2044,14.2236 19.25071,9.31909 25.2591,18.2699 25.2591,31.39009 0,19.6185 -14.9592,30.1636 -35.19119,30.1636 -10.6677,0 -19.8642,-2.20729 -25.1365,-5.2723 -0.8582,-0.3678 -0.9808,-0.9808 -0.9808,-1.9621 v -18.0247 c 0,-1.226 0.613,-1.59429 1.47169,-0.9808 7.7248,5.0276 16.55301,7.2344 24.64561,7.2344 9.68689,0 13.73319,-4.0463 13.73319,-9.5643 0,-4.4141 -2.82029,-8.3378 -15.20489,-14.71399 -17.4117,-8.33781 -24.6456,-16.79821 -24.6456,-30.89921 0,-15.81789 12.38459,-28.9376 33.8421,-28.9376 10.5451,0 17.9021,1.5943 21.9484,3.4333 0.9808,0.613 1.226,1.59381 1.226,2.45201 v 16.7982 c 0,0.9808 -0.613,1.5943 -1.8395,1.226 -5.3949,-3.43231 -13.3649,-5.51701 -21.3349,-5.51701 z m -105.4505,14.5914 c 2.8203,0.2452 5.0276,0.2452 9.9321,0.2452 14.34669,0 27.8342,-5.0271 27.8342,-24.523 0,-15.5722 -9.6869,-23.4201 -25.9947,-23.4201 -4.90451,0 -9.5643,0.24521 -11.7716,0.36781 z m -21.8253,-65.10959 c 0,-0.8582 1.71689,-1.4717 2.6972,-1.4717 7.84789,-0.3678 19.4964,-0.613 31.6353,-0.613 33.9647,0 47.207,18.6377 47.207,42.4256 0,31.1444 -22.5614,44.5098 -50.2725,44.5098 -4.6593,0 -6.25311,-0.2452 -9.5643,-0.2452 v 47.08489 c 0,0.9808 -0.3678,1.47121 -1.4712,1.47121 h -18.7603 c -0.9808,0 -1.4717,-0.3678 -1.4717,-1.47121 V 517.43727 Z" /></g><path
     style="fill:url(#a-0);stroke-width:0.9474"
     id="path462"
     fill="url(#a)"
     d="m 526.9143,470.60343 h 516.9714 v 502.8722 H 526.9143 Z" /><g
     id="g534"
     transform="matrix(0.35701726,0,0,0.35701726,207.44601,-149.91408)"><rect
       y="422.02505"
       x="305.41592"
       height="538.93494"
       width="556.54407"
       id="rect513"
       style="font-variation-settings:normal;opacity:1;vector-effect:none;fill:#1b0a00;fill-opacity:1;stroke-width:1;stroke-linecap:butt;stroke-linejoin:miter;stroke-miterlimit:4;stroke-dasharray:none;stroke-dashoffset:0;stroke-opacity:1;stop-color:#000000;stop-opacity:1" /><path
       id="path464"
       fill="#ff7f18"
       d="M 328.91428,445.52342 H 845.8857 v 502.8722 H 328.91428 Z M 305.41592,971.89493 H 869.3841 V 422.02507 H 305.41592 Z M 674.81465,618.00417 c 0,-1.87963 0.70487,-2.82041 2.82041,-2.82041 h 36.89274 c 1.8787,0 2.8194,0.70487 2.8194,2.82041 v 185.40518 c 0,1.8787 -0.4699,2.81947 -2.8194,2.81947 h -36.42283 c -2.34955,0 -3.05536,-1.17478 -3.05536,-3.05442 V 618.00417 Z m -2.5845,-53.34239 c 0,-15.03902 10.57393,-23.96826 23.96925,-23.96826 14.3341,0 23.9682,9.6341 23.9682,23.96826 0,15.50893 -10.104,23.96826 -24.4381,23.96826 -13.63029,9.5e-4 -23.49935,-8.45933 -23.49935,-23.96826 z M 566.48613,695.31483 c -6.57875,-26.0838 -22.08768,-82.95053 -27.96345,-110.44407 h -0.46991 c -4.93501,27.49354 -17.38858,74.02035 -27.25764,110.44407 z m -65.32606,38.06843 -18.56429,70.496 c -0.46991,1.8787 -1.17478,2.34862 -3.52433,2.34862 h -34.54314 c -2.34955,0 -2.82041,-0.70488 -2.34955,-3.52434 l 66.73578,-233.57761 c 1.17478,-4.2292 1.87964,-7.98942 2.34955,-19.50316 0,-1.6447 0.70487,-2.34956 1.87964,-2.34956 h 49.34721 c 1.64469,0 2.34955,0.4699 2.82041,2.34956 l 74.72521,253.55068 c 0.46991,1.87869 0,3.05443 -1.87964,3.05443 h -39.00824 c -1.87964,0 -3.05536,-0.46992 -3.52433,-2.11366 l -19.26916,-70.73096 z"
       style="display:inline;stroke-width:0.9474" /></g><path
     id="path536"
     fill="#222c37"
     d="m 443.46101,298.98142 33.01883,-57.01511 15.95488,57.01511 -15.95555,57.00147 z m -16.09297,9.25908 33.0232,57.00579 -57.51215,-14.73369 -41.54861,-42.2721 z m 33.01597,-75.54045 -33.01597,57.01513 h -66.03756 l 41.54861,-42.27498 z m 47.13608,46.87791 -20.14349,-74.93992 -75.18597,20.08385 -11.12965,19.56745 -22.58385,-0.16182 -55.03153,54.85896 55.03153,54.846 v 0 l 22.57443,-0.16687 11.14554,19.56746 75.17731,20.08027 20.14283,-74.92554 -11.43973,-19.40565 11.43973,-19.40277 z"
     style="stroke-width:0.719209;fill:#000000" /><path
     id="path572"
     d="m 214.6492,200.48805 c -51.4566,0 -93.1323,41.67572 -93.1323,93.13232 0,43.76821 30.0321,80.09377 70.5507,90.33437 -0.4677,-1.16516 -0.6975,-2.79796 -0.6975,-4.4228 v -15.83645 h -11.6436 c -6.2854,0 -12.1111,-2.79001 -14.6712,-7.91823 -3.0278,-5.58793 -3.4954,-14.20367 -11.176,-19.56175 -2.3303,-1.86264 -0.4676,-3.7253 2.0926,-3.49543 4.8904,1.395 8.8456,4.66058 12.5709,9.54309 3.7252,4.89043 5.358,6.05558 12.341,6.05558 3.2575,0 8.3779,-0.22986 13.0385,-0.93528 2.5602,-6.52324 6.9829,-12.34102 12.341,-15.13103 -31.1972,-3.7253 -46.0985,-19.09411 -46.0985,-40.05086 0,-9.08337 3.9552,-17.6991 10.4784,-25.14969 -2.0925,-7.22073 -4.8904,-22.12189 0.9353,-27.93969 13.9738,0 22.3517,9.08337 24.4442,11.40574 6.9829,-2.33029 14.6713,-3.7253 22.5817,-3.7253 8.148,0 15.5986,1.39501 22.5815,3.7253 2.0926,-2.33029 10.4784,-11.40574 24.4443,-11.40574 5.5879,5.58794 3.0278,20.71896 0.6975,27.93969 6.5232,7.22073 10.2485,16.06632 10.2485,25.14969 0,20.95675 -14.6713,36.32556 -45.6308,39.58321 8.6157,4.4228 14.6713,16.99368 14.6713,26.3069 v 21.21041 c 0,0.69749 -0.2299,1.39497 -0.2299,2.09248 36.3177,-12.57087 62.3947,-47.02586 62.3947,-87.77421 0,-51.4566 -41.6758,-93.13232 -93.1323,-93.13232 z"
     style="stroke-width:0.0792616;fill:#000000" /></g><g
   inkscape:groupmode="layer"
   id="layer4"
   inkscape:label="Layer 4"
   style="display:none"><text
     xml:space="preserve"
     style="font-style:normal;font-variant:normal;font-weight:normal;font-stretch:normal;font-size:109.943px;line-height:1.25;font-family:'American Captain';-inkscape-font-specification:'American Captain, Normal';font-variant-ligatures:normal;font-variant-caps:normal;font-variant-numeric:normal;font-variant-east-asian:normal;display:inline;opacity:0.996;fill:#000000;fill-opacity:1;stroke:none;stroke-width:0.57262"
     x="536.77112"
     y="107.13434"
     id="text60"><tspan
       sodipodi:role="line"
       id="tspan58"
       x="536.77112"
       y="107.13434"
       style="stroke-width:0.57262">Ryan</tspan></text><text
     id="text64"
     y="107.13434"
     x="740.05109"
     style="font-style:normal;font-variant:normal;font-weight:normal;font-stretch:normal;font-size:109.943px;line-height:1.25;font-family:'American Captain';-inkscape-font-specification:'American Captain, Normal';font-variant-ligatures:normal;font-variant-caps:normal;font-variant-numeric:normal;font-variant-east-asian:normal;display:inline;opacity:0.996;fill:#000000;fill-opacity:1;stroke:none;stroke-width:0.57262"
     xml:space="preserve"><tspan
       style="stroke-width:0.57262"
       y="107.13434"
       x="740.05109"
       id="tspan62"
       sodipodi:role="line">Rockers</tspan></text></g><g
   inkscape:groupmode="layer"
   id="layer5"
   inkscape:label="Layer 5" /><style
   id="style200">.st0{fill:#ff401f}.st1{fill:#260600}</style></svg>
